<svg xmlns="http://www.w3.org/2000/svg" width="75" height="75" viewBox="0 0 75 75">
  <metadata><?xpacket begin="﻿" id="W5M0MpCehiHzreSzNTczkc9d"?>
<x:xmpmeta xmlns:x="adobe:ns:meta/" x:xmptk="Adobe XMP Core 5.6-c142 79.160924, 2017/07/13-01:06:39        ">
   <rdf:RDF xmlns:rdf="http://www.w3.org/1999/02/22-rdf-syntax-ns#">
      <rdf:Description rdf:about=""/>
   </rdf:RDF>
</x:xmpmeta>
                                                                                                    
                                                                                                    
                                                                                                    
                                                                                                    
                                                                                                    
                                                                                                    
                                                                                                    
                                                                                                    
                                                                                                    
                                                                                                    
                                                                                                    
                                                                                                    
                                                                                                    
                                                                                                    
                                                                                                    
                                                                                                    
                                                                                                    
                                                                                                    
                                                                                                    
                                                                                                    
                           
<?xpacket end="w"?></metadata>
<defs>
    <style>
      .cls-1 {
        fill: #5c459b;
        fill-rule: evenodd;
      }
    </style>
  </defs>
  <path id="Forma_1" data-name="Forma 1" d="M542.621,1588.65a10.934,10.934,0,0,0,3.855-8.34,10.985,10.985,0,1,0-21.968,0,10.95,10.95,0,0,0,3.855,8.34,15.406,15.406,0,0,0-8.249,13.62v4.4a2.193,2.193,0,0,0,2.2,2.19h26.362a2.193,2.193,0,0,0,2.2-2.19v-4.4A15.406,15.406,0,0,0,542.621,1588.65Zm-7.129-15.08a6.757,6.757,0,0,1,6.59,6.74,6.59,6.59,0,0,1-13.18,0A6.758,6.758,0,0,1,535.492,1573.57Zm10.984,30.9H524.508v-2.2a10.984,10.984,0,0,1,21.968,0v2.2h0Zm25.038,22.23a25.635,25.635,0,0,1-9.565-10.32,34.4,34.4,0,0,0,11.035-25.09c0-19.72-17.178-35.29-37.492-35.29S498,1571.57,498,1591.29s17.179,35.29,37.492,35.29a39.781,39.781,0,0,0,8.522-.92,4.035,4.035,0,0,0,1.172-.19,48.375,48.375,0,0,0,24.238,5.49c0.328,0,.686-0.01.919,0A2.214,2.214,0,0,0,571.514,1626.7Zm-24.578-5.28a2.194,2.194,0,0,0-2.067-.49,35.5,35.5,0,0,1-9.377,1.26c-18.251,0-33.1-13.86-33.1-30.9s14.847-30.9,33.1-30.9,33.1,13.86,33.1,30.9a30.1,30.1,0,0,1-10.713,22.84,2.184,2.184,0,0,0-.62,2.46,28.046,28.046,0,0,0,6.75,9.85A42.952,42.952,0,0,1,546.936,1621.42Z" transform="translate(-498 -1556)"/>
</svg>
