<svg xmlns="http://www.w3.org/2000/svg" width="70.969" height="71" viewBox="0 0 70.969 71">
  <metadata><?xpacket begin="﻿" id="W5M0MpCehiHzreSzNTczkc9d"?>
<x:xmpmeta xmlns:x="adobe:ns:meta/" x:xmptk="Adobe XMP Core 5.6-c142 79.160924, 2017/07/13-01:06:39        ">
   <rdf:RDF xmlns:rdf="http://www.w3.org/1999/02/22-rdf-syntax-ns#">
      <rdf:Description rdf:about=""/>
   </rdf:RDF>
</x:xmpmeta>
                                                                                                    
                                                                                                    
                                                                                                    
                                                                                                    
                                                                                                    
                                                                                                    
                                                                                                    
                                                                                                    
                                                                                                    
                                                                                                    
                                                                                                    
                                                                                                    
                                                                                                    
                                                                                                    
                                                                                                    
                                                                                                    
                                                                                                    
                                                                                                    
                                                                                                    
                                                                                                    
                           
<?xpacket end="w"?></metadata>
<defs>
    <style>
      .cls-1 {
        fill: #5d459a;
        fill-rule: evenodd;
      }
    </style>
  </defs>
  <path d="M242.4,1564.59a15.672,15.672,0,0,0-22.163,0L179.6,1605.22a2.024,2.024,0,0,0-.575,1.16l-3.01,22.31a2,2,0,0,0,.575,1.7,2.062,2.062,0,0,0,1.437.61,1.251,1.251,0,0,0,.272-0.02l13.434-1.81a2.048,2.048,0,0,0-.545-4.06l-10.771,1.46,2.1-15.56,16.368,16.37a2.066,2.066,0,0,0,1.438.61,1.982,1.982,0,0,0,1.437-.61l40.634-40.62A15.659,15.659,0,0,0,242.4,1564.59Zm-21.376,5,6.823,6.82-37.079,37.08-6.823-6.82Zm-20.68,53.47-6.672-6.68,37.079-37.08,6.672,6.67Zm39.923-40.01-16.323-16.32A11.594,11.594,0,0,1,240.268,1583.05Z" transform="translate(-176.031 -1560)"/>
</svg>
