<svg xmlns="http://www.w3.org/2000/svg" width="79" height="79" viewBox="0 0 79 79">
  <metadata><?xpacket begin="﻿" id="W5M0MpCehiHzreSzNTczkc9d"?>
<x:xmpmeta xmlns:x="adobe:ns:meta/" x:xmptk="Adobe XMP Core 5.6-c142 79.160924, 2017/07/13-01:06:39        ">
   <rdf:RDF xmlns:rdf="http://www.w3.org/1999/02/22-rdf-syntax-ns#">
      <rdf:Description rdf:about=""/>
   </rdf:RDF>
</x:xmpmeta>
                                                                                                    
                                                                                                    
                                                                                                    
                                                                                                    
                                                                                                    
                                                                                                    
                                                                                                    
                                                                                                    
                                                                                                    
                                                                                                    
                                                                                                    
                                                                                                    
                                                                                                    
                                                                                                    
                                                                                                    
                                                                                                    
                                                                                                    
                                                                                                    
                                                                                                    
                                                                                                    
                           
<?xpacket end="w"?></metadata>
<defs>
    <style>
      .cls-1 {
        fill: #fff;
        fill-rule: evenodd;
        opacity: 0.6;
      }
    </style>
  </defs>
  <path id="Forma_1" data-name="Forma 1" d="M206.371,1117.21v-7.34a2.31,2.31,0,0,0-2.315-2.31,70.142,70.142,0,0,0-13.45,1.22,20.9,20.9,0,0,0-8.689-5.03,16.2,16.2,0,1,0-20.834,0,20.9,20.9,0,0,0-8.689,5.03,70.152,70.152,0,0,0-13.451-1.22,2.309,2.309,0,0,0-2.314,2.31v7.34a6.962,6.962,0,0,0-4.629,6.55v4.62a6.962,6.962,0,0,0,4.629,6.55v7.34a2.318,2.318,0,0,0,2.314,2.32c12.1,0,22.039,2.86,31.273,9.02a2.327,2.327,0,0,0,2.568,0c9.234-6.16,19.171-9.02,31.273-9.02a2.318,2.318,0,0,0,2.314-2.32v-7.34a6.962,6.962,0,0,0,4.629-6.55v-4.62A6.962,6.962,0,0,0,206.371,1117.21Zm-46.444-25.86a11.573,11.573,0,1,1,11.573,11.58A11.662,11.662,0,0,1,159.927,1091.35Zm-20.984,39.35a2.319,2.319,0,0,1-2.314-2.32v-4.62a2.315,2.315,0,1,1,4.629,0v4.62A2.32,2.32,0,0,1,138.943,1130.7Zm30.242,16.83a58,58,0,0,0-27.927-7.54v-5.06a6.963,6.963,0,0,0,4.629-6.55v-4.62a6.963,6.963,0,0,0-4.629-6.55v-4.99c10.875,0.31,19.616,2.87,27.927,8.16v27.15Zm2.315-31.16a55.138,55.138,0,0,0-13.465-6.19,16.269,16.269,0,0,1,8.836-2.62h9.258a16.272,16.272,0,0,1,8.836,2.62A55.1,55.1,0,0,0,171.5,1116.37Zm30.242,23.62a58,58,0,0,0-27.928,7.54v-27.15c8.312-5.29,17.052-7.85,27.928-8.16v4.99a6.962,6.962,0,0,0-4.629,6.55v4.62a6.962,6.962,0,0,0,4.629,6.55v5.06Zm4.629-11.61a2.315,2.315,0,1,1-4.629,0v-4.62a2.315,2.315,0,1,1,4.629,0v4.62Z" transform="translate(-132 -1075)"/>
</svg>
