<svg xmlns="http://www.w3.org/2000/svg" width="79" height="60" viewBox="0 0 79 60">
  <metadata><?xpacket begin="﻿" id="W5M0MpCehiHzreSzNTczkc9d"?>
<x:xmpmeta xmlns:x="adobe:ns:meta/" x:xmptk="Adobe XMP Core 5.6-c142 79.160924, 2017/07/13-01:06:39        ">
   <rdf:RDF xmlns:rdf="http://www.w3.org/1999/02/22-rdf-syntax-ns#">
      <rdf:Description rdf:about=""/>
   </rdf:RDF>
</x:xmpmeta>





















<?xpacket end="w"?></metadata>
<defs>
    <style>
      .cls-2 {
        fill: #262626;
        fill-rule: evenodd;
      }
    </style>
  </defs>
  <path class="cls-2" d="M572.355,1314h-59.7a9.657,9.657,0,0,0-9.66,9.64v40.72a9.657,9.657,0,0,0,9.66,9.64h59.679a9.657,9.657,0,0,0,9.66-9.64v-40.7A9.65,9.65,0,0,0,572.355,1314Zm5.247,50.36a5.249,5.249,0,0,1-5.247,5.24h-59.7a5.249,5.249,0,0,1-5.247-5.24v-40.7a5.249,5.249,0,0,1,5.247-5.24h59.679a5.249,5.249,0,0,1,5.247,5.24v40.7H577.6Zm-24.78-20.87,19.32-17.29a2.208,2.208,0,0,0-2.958-3.28l-26.644,23.87-5.2-4.63a0.14,0.14,0,0,1-.032-0.05,2.944,2.944,0,0,0-.36-0.31L515.8,1322.91a2.207,2.207,0,0,0-2.943,3.29l19.55,17.44-19.468,18.19a2.212,2.212,0,0,0-.1,3.12,2.285,2.285,0,0,0,1.618.7,2.223,2.223,0,0,0,1.5-.59l19.762-18.45,5.362,4.78a2.212,2.212,0,0,0,2.942-.02l5.508-4.92,19.648,18.63a2.227,2.227,0,0,0,1.52.6,2.2,2.2,0,0,0,1.52-3.8Z" transform="translate(-503 -1314)"/>
</svg>
