<svg xmlns="http://www.w3.org/2000/svg" width="62.562" height="73.437" viewBox="0 0 62.562 73.437">
  <metadata><?xpacket begin="﻿" id="W5M0MpCehiHzreSzNTczkc9d"?>
<x:xmpmeta xmlns:x="adobe:ns:meta/" x:xmptk="Adobe XMP Core 5.6-c142 79.160924, 2017/07/13-01:06:39        ">
   <rdf:RDF xmlns:rdf="http://www.w3.org/1999/02/22-rdf-syntax-ns#">
      <rdf:Description rdf:about=""/>
   </rdf:RDF>
</x:xmpmeta>





















<?xpacket end="w"?></metadata>
<defs>
    <style>
      .cls-1 {
        fill: #fff;
        fill-rule: evenodd;
        opacity: 0.7;
      }
    </style>
  </defs>
  <path id="lock_icon" data-name="lock icon" d="M140.214,791V742.052h15.643v-8.741a15.643,15.643,0,1,1,31.286,0v8.741h15.643V791H140.214Zm43.453-57.689a12.167,12.167,0,1,0-24.334,0v8.741h24.334v-8.741Zm15.642,12.237H143.69V787.5h55.619V745.548ZM171.5,754.289a6.817,6.817,0,0,1,6.952,6.674,6.655,6.655,0,0,1-4.065,6.056l1.748,11.744h-9.27l1.747-11.744a6.656,6.656,0,0,1-4.064-6.056A6.817,6.817,0,0,1,171.5,754.289Z" transform="translate(-140.219 -717.563)"/>
</svg>
