<svg xmlns="http://www.w3.org/2000/svg" width="80" height="75" viewBox="0 0 80 75">
  <metadata><?xpacket begin="﻿" id="W5M0MpCehiHzreSzNTczkc9d"?>
<x:xmpmeta xmlns:x="adobe:ns:meta/" x:xmptk="Adobe XMP Core 5.6-c142 79.160924, 2017/07/13-01:06:39        ">
   <rdf:RDF xmlns:rdf="http://www.w3.org/1999/02/22-rdf-syntax-ns#">
      <rdf:Description rdf:about=""/>
   </rdf:RDF>
</x:xmpmeta>
                                                                                                    
                                                                                                    
                                                                                                    
                                                                                                    
                                                                                                    
                                                                                                    
                                                                                                    
                                                                                                    
                                                                                                    
                                                                                                    
                                                                                                    
                                                                                                    
                                                                                                    
                                                                                                    
                                                                                                    
                                                                                                    
                                                                                                    
                                                                                                    
                                                                                                    
                                                                                                    
                           
<?xpacket end="w"?></metadata>
<defs>
    <style>
      .cls-1 {
        fill: #5c469c;
        fill-rule: evenodd;
      }
    </style>
  </defs>
  <path id="Forma_1" data-name="Forma 1" d="M872.875,1571.83a9.2,9.2,0,0,0,2.656-6.46,9.532,9.532,0,0,0-19.062,0,9.2,9.2,0,0,0,2.656,6.46,14.054,14.054,0,0,0-7.344,12.29v2.35a2.344,2.344,0,0,0,2.344,2.34h23.75a2.344,2.344,0,0,0,2.344-2.34v-2.35A14.055,14.055,0,0,0,872.875,1571.83ZM866,1560.69a4.688,4.688,0,1,1-4.844,4.68A4.826,4.826,0,0,1,866,1560.69Zm-9.531,23.43a9.532,9.532,0,0,1,19.062,0H856.469Zm42.268,29.89a9.376,9.376,0,1,0-13.6,0,14.063,14.063,0,0,0-7.263,12.3v2.35a2.343,2.343,0,0,0,2.344,2.34h23.437a2.343,2.343,0,0,0,2.344-2.34v-2.35A14.063,14.063,0,0,0,898.737,1614.01Zm-6.8-11.14a4.69,4.69,0,1,1-4.687,4.69A4.7,4.7,0,0,1,891.937,1602.87Zm-9.375,23.44a9.375,9.375,0,0,1,18.75,0h-18.75Zm-35.7-12.3a9.376,9.376,0,1,0-13.6,0,14.063,14.063,0,0,0-7.263,12.3v2.35a2.343,2.343,0,0,0,2.344,2.34h23.437a2.343,2.343,0,0,0,2.344-2.34v-2.35A14.063,14.063,0,0,0,846.862,1614.01Zm-6.8-11.14a4.69,4.69,0,1,1-4.687,4.69A4.7,4.7,0,0,1,840.062,1602.87Zm-9.375,23.44a9.375,9.375,0,0,1,18.75,0h-18.75Zm46.488-13.39-8.831-8.68v-8.4a2.344,2.344,0,0,0-4.688,0v8.4l-8.831,8.68a2.343,2.343,0,1,0,3.287,3.34l7.888-7.75,7.888,7.75A2.343,2.343,0,1,0,877.175,1612.92Z" transform="translate(-826 -1556)"/>
</svg>
