<svg xmlns="http://www.w3.org/2000/svg" width="83" height="68" viewBox="0 0 83 68">
  <metadata><?xpacket begin="﻿" id="W5M0MpCehiHzreSzNTczkc9d"?>
<x:xmpmeta xmlns:x="adobe:ns:meta/" x:xmptk="Adobe XMP Core 5.6-c142 79.160924, 2017/07/13-01:06:39        ">
   <rdf:RDF xmlns:rdf="http://www.w3.org/1999/02/22-rdf-syntax-ns#">
      <rdf:Description rdf:about=""/>
   </rdf:RDF>
</x:xmpmeta>





















<?xpacket end="w"?></metadata>
<defs>
    <style>
      .cls-5 {
        fill: #46aaf6;
        fill-rule: evenodd;
      }
    </style>
  </defs>
  <path id="Forma_1" data-name="Forma 1" class="cls-5" d="M835,1318.05a33.844,33.844,0,0,1-9.78,2.7,17.176,17.176,0,0,0,7.487-9.5,33.87,33.87,0,0,1-10.813,4.17,17.009,17.009,0,0,0-29.458,11.74,17.388,17.388,0,0,0,.441,3.92,48.219,48.219,0,0,1-35.1-17.94,17.278,17.278,0,0,0,5.269,22.92,16.812,16.812,0,0,1-7.712-2.15c0,0.07,0,.15,0,0.22a17.132,17.132,0,0,0,13.659,16.83,16.764,16.764,0,0,1-7.69.3,17.064,17.064,0,0,0,15.907,11.92,34.157,34.157,0,0,1-25.21,7.11,47.922,47.922,0,0,0,26.1,7.71c31.321,0,48.449-26.16,48.449-48.84,0-.75-0.017-1.49-0.049-2.23A34.773,34.773,0,0,0,835,1318.05Z" transform="translate(-752 -1310)"/>
</svg>
