<svg xmlns="http://www.w3.org/2000/svg" width="62.031" height="72" viewBox="0 0 62.031 72">
  <metadata><?xpacket begin="﻿" id="W5M0MpCehiHzreSzNTczkc9d"?>
<x:xmpmeta xmlns:x="adobe:ns:meta/" x:xmptk="Adobe XMP Core 5.6-c142 79.160924, 2017/07/13-01:06:39        ">
   <rdf:RDF xmlns:rdf="http://www.w3.org/1999/02/22-rdf-syntax-ns#">
      <rdf:Description rdf:about=""/>
   </rdf:RDF>
</x:xmpmeta>
                                                                                                    
                                                                                                    
                                                                                                    
                                                                                                    
                                                                                                    
                                                                                                    
                                                                                                    
                                                                                                    
                                                                                                    
                                                                                                    
                                                                                                    
                                                                                                    
                                                                                                    
                                                                                                    
                                                                                                    
                                                                                                    
                                                                                                    
                                                                                                    
                                                                                                    
                                                                                                    
                           
<?xpacket end="w"?></metadata>
<defs>
    <style>
      .cls-1 {
        fill: #fff;
        fill-rule: evenodd;
        opacity: 0.6;
      }
    </style>
  </defs>
  <path id="user" d="M171.736,931.8h0.483a14.009,14.009,0,0,0,10.641-4.548c5.811-6.471,4.845-17.564,4.74-18.622-0.378-7.947-4.181-11.749-7.321-13.524a16.95,16.95,0,0,0-8.121-2.1H171.9a16.97,16.97,0,0,0-8.121,2.043c-3.169,1.774-7.033,5.576-7.411,13.583-0.105,1.058-1.072,12.151,4.74,18.622A13.952,13.952,0,0,0,171.736,931.8ZM160.4,909c0-.044.015-0.089,0.015-0.119,0.5-10.69,8.181-11.838,11.472-11.838h0.181c4.075,0.089,11,1.729,11.471,11.838a0.285,0.285,0,0,0,.015.119c0.015,0.1,1.072,10.243-3.728,15.581a9.952,9.952,0,0,1-7.773,3.191H171.9a9.918,9.918,0,0,1-7.758-3.191C159.359,919.271,160.385,909.088,160.4,909Zm42.6,41.2V950.15c0-.12-0.015-0.239-0.015-0.373-0.09-2.952-.287-9.856-6.837-12.062-0.046-.015-0.106-0.03-0.151-0.045a43.773,43.773,0,0,1-12.528-5.636,2.052,2.052,0,0,0-2.838.492,2,2,0,0,0,.5,2.8,47.274,47.274,0,0,0,13.781,6.218c3.517,1.237,3.909,4.95,4.015,8.349a2.98,2.98,0,0,0,.015.373,26.7,26.7,0,0,1-.317,4.607c-2.445,1.372-12.03,6.113-26.61,6.113-14.521,0-24.166-4.756-26.626-6.128a25.285,25.285,0,0,1-.317-4.607c0-.119.015-0.239,0.015-0.373,0.106-3.4.5-7.112,4.015-8.349a47.719,47.719,0,0,0,13.781-6.218,2,2,0,0,0,.5-2.8,2.052,2.052,0,0,0-2.838-.492,43.266,43.266,0,0,1-12.528,5.636c-0.06.015-.106,0.03-0.151,0.045-6.551,2.221-6.747,9.125-6.837,12.062a2.988,2.988,0,0,1-.015.373v0.044c-0.016.776-.031,4.757,0.769,6.755a1.924,1.924,0,0,0,.785.939c0.453,0.3,11.306,7.127,29.464,7.127s29.01-6.844,29.463-7.127a2.007,2.007,0,0,0,.785-0.939C203.026,954.951,203.01,950.97,203,950.194Z" transform="translate(-141 -893)"/>
</svg>
