<?xml version="1.0" encoding="iso-8859-1"?>
<!-- Generator: Adobe Illustrator 19.0.0, SVG Export Plug-In . SVG Version: 6.00 Build 0)  -->
<svg version="1.1" id="Layer_1" xmlns="http://www.w3.org/2000/svg" xmlns:xlink="http://www.w3.org/1999/xlink" x="0px" y="0px"
	 viewBox="0 0 512 512" style="enable-background:new 0 0 512 512;" xml:space="preserve">
<path style="fill:#1A91A1;" d="M256.001,0C397.385,0,512,114.615,512,256.001C512,397.385,397.385,512,256.001,512
	C114.615,512,0,397.385,0,256.001C0,114.615,114.615,0,256.001,0z"/>
<g>
	<path style="fill:#FFFFFF;" d="M115.32,87.261l-0.004-0.362c24.377-0.168,31.274-7.089,31.607-31.671l0.353,0.007
		c1.898,24.372,8.698,31.379,31.036,31.659l-0.007,0.419c-22.101,2.141-28.987,9.009-30.969,30.91l-0.428,0.004
		c-0.465-22.093-7.47-28.89-31.589-30.967H115.32z"/>
	<path style="fill:#FFFFFF;" d="M222.655,459.324l-0.002-0.278c18.633-0.128,23.903-5.417,24.159-24.205l0.271,0.004
		c1.449,18.629,6.648,23.984,23.72,24.2l-0.002,0.32c-16.894,1.636-22.157,6.886-23.674,23.625l-0.326,0.002
		c-0.355-16.885-5.708-22.082-24.148-23.669H222.655z"/>
	<path style="fill:#FFFFFF;" d="M436.781,199.455l-0.004-0.278c18.633-0.128,23.903-5.417,24.159-24.205l0.271,0.002
		c1.449,18.629,6.648,23.984,23.722,24.2l-0.004,0.32c-16.894,1.636-22.157,6.886-23.671,23.625l-0.326,0.002
		c-0.355-16.885-5.708-22.082-24.145-23.669V199.455z"/>
	<path style="fill:#FFFFFF;" d="M48.849,290.728l-0.002-0.234c15.871-0.11,20.36-4.617,20.578-20.622l0.232,0.004
		c1.235,15.868,5.662,20.428,20.205,20.611l-0.002,0.271c-14.391,1.396-18.874,5.867-20.166,20.126l-0.278,0.004
		c-0.302-14.387-4.862-18.812-20.567-20.163V290.728z"/>
</g>
<path style="fill:#F5A209;" d="M256.709,97.979c86.062,0,155.828,69.766,155.828,155.826s-69.768,155.826-155.828,155.826
	s-155.826-69.766-155.826-155.826S170.649,97.979,256.709,97.979z"/>
<path style="fill:#FBB429;" d="M256.709,97.979c42.071,0,80.241,16.678,108.276,43.775c16.951,24.939,26.86,55.051,26.86,87.48
	c0,86.062-69.764,155.828-155.826,155.828c-42.069,0-80.241-16.677-108.276-43.773c-16.949-24.944-26.86-55.053-26.86-87.482
	c0-86.06,69.766-155.826,155.826-155.826V97.979z"/>
<path style="fill:#F5A209;" d="M273.671,184.174c-10.171,0-18.413-8.244-18.413-18.413c0-10.169,8.244-18.413,18.413-18.413
	s18.413,8.244,18.413,18.413C292.084,175.932,283.837,184.174,273.671,184.174z"/>
<path style="fill:#FBB429;" d="M273.708,183.633c-4.813,0-9.181-1.909-12.387-5.009c-1.938-2.853-3.074-6.299-3.074-10.008
	c0-9.845,7.982-17.826,17.828-17.826c4.811,0,9.181,1.909,12.387,5.009c1.938,2.853,3.074,6.297,3.074,10.008
	C291.537,175.652,283.555,183.633,273.708,183.633z"/>
<path style="fill:#F5A209;" d="M165.075,242.64c-9.47,0-17.152-7.682-17.152-17.152c0-9.472,7.682-17.152,17.152-17.152
	c9.472,0,17.149,7.68,17.149,17.152C182.225,234.958,174.545,242.64,165.075,242.64z"/>
<path style="fill:#FBB429;" d="M165.11,242.135c-4.482,0-8.548-1.777-11.536-4.663c-1.808-2.659-2.862-5.865-2.862-9.322
	c0-9.168,7.433-16.603,16.603-16.603c4.482,0,8.55,1.777,11.536,4.663c1.806,2.657,2.862,5.865,2.862,9.322
	C181.713,234.702,174.28,242.135,165.11,242.135z"/>
<path style="fill:#F5A209;" d="M205.133,338.685c-6.597,0-11.946-5.347-11.946-11.946c0-6.597,5.349-11.948,11.946-11.948
	c6.599,0,11.948,5.351,11.948,11.948C217.081,333.339,211.732,338.685,205.133,338.685z"/>
<path style="fill:#FBB429;" d="M205.157,338.337c-3.122,0-5.955-1.239-8.037-3.25c-1.259-1.852-1.993-4.086-1.993-6.493
	c0-6.39,5.177-11.567,11.567-11.567c3.122,0,5.955,1.237,8.037,3.248c1.257,1.852,1.993,4.088,1.993,6.493
	C216.724,333.158,211.545,338.337,205.157,338.337z"/>
<path style="fill:#F5A209;" d="M341.664,209.803c-9.229,0-16.715-7.483-16.715-16.715s7.486-16.711,16.715-16.711
	c9.23,0,16.713,7.481,16.713,16.711C358.377,202.32,350.894,209.803,341.664,209.803z"/>
<path style="fill:#FBB429;" d="M341.699,209.313c-4.368,0-8.332-1.731-11.245-4.546c-1.759-2.589-2.789-5.717-2.789-9.082
	c0-8.936,7.245-16.181,16.181-16.181c4.368,0,8.332,1.731,11.243,4.546c1.762,2.588,2.789,5.717,2.789,9.084
	c0,8.936-7.243,16.181-16.179,16.181V209.313z"/>
<path style="fill:#F5A209;" d="M375.482,315.032c-6.742,0-12.208-5.464-12.208-12.206c0-6.742,5.466-12.208,12.208-12.208
	c6.738,0,12.204,5.464,12.204,12.208C387.686,309.568,382.22,315.032,375.482,315.032z"/>
<path style="fill:#FBB429;" d="M375.506,314.674c-3.188,0-6.083-1.266-8.211-3.321c-1.285-1.892-2.035-4.176-2.035-6.634
	c0-6.526,5.292-11.818,11.818-11.818c3.19,0,6.085,1.266,8.211,3.318c1.288,1.892,2.037,4.176,2.037,6.634
	c0,6.526-5.289,11.818-11.818,11.818L375.506,314.674z"/>
<path style="fill:#F5A209;" d="M317.508,372.625c-4.535,0-8.213-3.678-8.213-8.213c0-4.538,3.68-8.215,8.213-8.215
	c4.535,0,8.215,3.68,8.215,8.215C325.723,368.947,322.043,372.625,317.508,372.625z"/>
<path style="fill:#FBB429;" d="M317.525,372.382c-2.15,0-4.097-0.849-5.528-2.234c-0.864-1.274-1.371-2.811-1.371-4.467
	c0-4.392,3.561-7.953,7.953-7.953c2.148,0,4.094,0.851,5.525,2.234c0.864,1.274,1.369,2.809,1.369,4.465
	c0,4.394-3.559,7.953-7.951,7.953L317.525,372.382z"/>
<path style="fill:#F5A209;" d="M387.538,255.382c-3.201,0-5.801-2.597-5.801-5.799c0-3.206,2.6-5.801,5.801-5.801
	c3.204,0,5.801,2.597,5.801,5.801C393.339,252.784,390.742,255.382,387.538,255.382z"/>
<path style="fill:#FBB429;" d="M387.551,255.214c-1.519,0-2.893-0.602-3.905-1.579c-0.609-0.9-0.966-1.982-0.966-3.153
	c0-3.102,2.514-5.616,5.614-5.616c1.517,0,2.893,0.602,3.903,1.579c0.611,0.897,0.966,1.984,0.966,3.153
	c0,3.102-2.511,5.616-5.614,5.616H387.551z"/>
<path style="fill:#F5A209;" d="M213.053,395.079c-8.173,0-14.797-6.626-14.797-14.797c0-8.176,6.626-14.799,14.797-14.799
	c8.173,0,14.799,6.623,14.799,14.799C227.852,388.453,221.226,395.079,213.053,395.079z"/>
<path style="fill:#FBB429;" d="M213.086,394.645c-3.87,0-7.377-1.535-9.957-4.026c-1.557-2.293-2.467-5.062-2.467-8.043
	c0-7.913,6.414-14.329,14.327-14.329c3.867,0,7.377,1.535,9.955,4.026c1.559,2.291,2.472,5.062,2.472,8.043
	c0,7.913-6.414,14.327-14.327,14.327L213.086,394.645z"/>
<path style="fill:#F5A209;" d="M144.341,307.456c-8.912,0-16.137-7.223-16.137-16.135s7.225-16.137,16.137-16.137
	c8.91,0,16.135,7.225,16.135,16.137S153.251,307.456,144.341,307.456z"/>
<path style="fill:#FBB429;" d="M144.374,306.984c-4.216,0-8.043-1.673-10.852-4.388c-1.7-2.5-2.694-5.521-2.694-8.771
	c0-8.625,6.994-15.621,15.621-15.621c4.218,0,8.046,1.671,10.854,4.388c1.7,2.5,2.694,5.521,2.694,8.773
	c0,8.628-6.994,15.621-15.624,15.621V306.984z"/>
<path style="fill:#F5A209;" d="M265.03,308.728c-8.912,0-16.137-7.225-16.137-16.137c0-8.91,7.225-16.135,16.137-16.135
	s16.135,7.225,16.135,16.135C281.165,301.503,273.942,308.728,265.03,308.728z"/>
<path style="fill:#FBB429;" d="M265.063,308.254c-4.216,0-8.043-1.671-10.854-4.388c-1.7-2.5-2.692-5.521-2.692-8.771
	c0-8.628,6.994-15.621,15.619-15.621c4.218,0,8.046,1.673,10.857,4.39c1.698,2.498,2.694,5.519,2.694,8.771
	c0,8.628-6.994,15.621-15.624,15.621V308.254z"/>
<g>
	<path style="fill:#F5A209;" d="M270.822,98.612c-15.621,9.384-30.312,20.637-39.652,33.423
		c-16.023,21.936-37.663,27.378-62.971,33.736c-15.496,3.894-32.403,8.147-50.145,16.854c1.217-2.368,2.498-4.694,3.832-6.989
		c15.963-7.093,31.139-10.905,45.173-14.435c24.428-6.138,45.314-11.39,60.32-31.928c8.583-11.754,21.453-22.221,35.439-31.177
		c2.688,0.104,5.356,0.276,8.006,0.514L270.822,98.612z M306.051,105.956L306.051,105.956
		c-23.21,10.524-47.182,30.548-70.253,49.823c-27.093,22.637-52.921,44.214-73.929,47.398
		c-23.349,3.537-44.106,17.972-59.979,32.929c-0.267,2.357-0.481,4.732-0.642,7.119c15.732-15.696,37.132-31.723,61.321-35.388
		c22.304-3.38,48.63-25.376,76.248-48.447c24.381-20.371,49.792-41.601,73.735-51.102c-2.145-0.822-4.313-1.599-6.502-2.331V105.956
		z M362.233,139.157L362.233,139.157c-24.066,7.898-58.563,25.81-95.704,66.324c-34.806,37.968-67.577,42.091-96.319,45.702v0.009
		c-25.726,3.232-48.344,6.083-66.728,31.091c0.392,2.132,0.829,4.251,1.31,6.35c17.709-26.705,40.219-29.538,65.985-32.78
		l0.002,0.009c29.541-3.713,63.22-7.949,99.212-47.21c37.712-41.143,72.374-58.468,95.768-65.751l-0.774-1.147
		c-0.906-0.878-1.826-1.744-2.754-2.597H362.233z M390.74,210.579L390.74,210.579c0.212,1.777,0.395,3.565,0.547,5.36
		c-19.136,13.597-43.001,24.675-70.008,24.675c-48.901,0-63.083,13.727-84.783,34.726c-8.374,8.107-17.844,17.271-30.744,27.162
		c-27.316,20.942-58.25,31.368-79.567,36.446c-0.906-1.387-1.786-2.787-2.648-4.202c20.847-4.807,51.968-14.982,79.361-35.983
		c12.687-9.726,22.044-18.783,30.321-26.793c22.536-21.813,37.269-36.069,88.06-36.069
		C348.184,235.899,371.919,224.401,390.74,210.579z M388.7,260.55L388.7,260.55c-0.335,1.636-0.703,3.259-1.087,4.877
		c-17.462,3.182-34.962,9.342-44.218,21.065c-12.111,15.341-60.536,42.311-111.178,65.083
		c-18.287,8.224-36.892,15.912-54.204,22.329c-2.117-0.851-4.211-1.744-6.279-2.683c18.459-6.687,38.684-14.993,58.57-23.934
		c50.068-22.514,97.768-48.954,109.409-63.7c10.369-13.134,29.973-19.753,48.99-23.034L388.7,260.55z M345.035,340.568
		L345.035,340.568c-35.838,8.694-74.994,27.263-106.38,44.463c3.658-0.062,7.283-0.249,10.877-0.556
		c26.943-14.321,58.466-28.853,88.199-37.183c2.509-2.161,4.941-4.408,7.305-6.723V340.568z"/>
	<path style="fill:#F5A209;" d="M289.596,276.874c-19.524,0-35.353-15.829-35.353-35.353s15.826-35.353,35.353-35.353
		c19.524,0,35.35,15.826,35.35,35.353C324.947,261.046,309.12,276.874,289.596,276.874z"/>
</g>
<path style="fill:#FBB429;" d="M289.671,275.838c-9.241,0-17.626-3.664-23.782-9.615c-3.722-5.477-5.898-12.091-5.898-19.213
	c0-18.904,15.324-34.228,34.226-34.228c9.238,0,17.623,3.664,23.782,9.615c3.722,5.479,5.9,12.091,5.9,19.215
	c0,18.902-15.324,34.226-34.226,34.226H289.671z"/>
<path style="fill:#F5A209;" d="M184.154,175.37c-10.638,0-19.259-8.621-19.259-19.257c0-10.636,8.621-19.259,19.259-19.259
	s19.259,8.623,19.259,19.259C203.413,166.749,194.792,175.37,184.154,175.37z"/>
<path style="fill:#FBB429;" d="M184.193,174.803c-5.034,0-9.6-1.995-12.954-5.239c-2.031-2.983-3.215-6.586-3.215-10.466
	c0-10.299,8.35-18.646,18.646-18.646c5.034,0,9.6,1.995,12.958,5.239c2.028,2.985,3.215,6.586,3.215,10.466
	c0,10.297-8.348,18.646-18.649,18.646H184.193z"/>
<g>
</g>
<g>
</g>
<g>
</g>
<g>
</g>
<g>
</g>
<g>
</g>
<g>
</g>
<g>
</g>
<g>
</g>
<g>
</g>
<g>
</g>
<g>
</g>
<g>
</g>
<g>
</g>
<g>
</g>
</svg>
