<?xml version="1.0" encoding="iso-8859-1"?>
<!-- Generator: Adobe Illustrator 19.0.0, SVG Export Plug-In . SVG Version: 6.00 Build 0)  -->
<svg version="1.1" id="Layer_1" xmlns="http://www.w3.org/2000/svg" xmlns:xlink="http://www.w3.org/1999/xlink" x="0px" y="0px"
	 viewBox="0 0 512 512" style="enable-background:new 0 0 512 512;" xml:space="preserve">
<path style="fill:#1A91A1;" d="M256.001,0c141.383,0,255.998,114.615,255.998,256.001C511.999,397.385,397.384,512,256.001,512
	c-141.387,0-256-114.615-256-255.999C0.001,114.615,114.614,0,256.001,0z"/>
<path style="fill:#ECF0F1;" d="M449.88,229.812c4.539,1.524,7.607,11.326,2.432,26.879c-5.174,15.553-13.518,21.522-18.028,20.006
	c-2.658-0.891-3.089-1.268-6.581-2.439l0.727-2.182c-3.74-5.497-4.527-14.648-1.453-23.895c3.077-9.246,9.181-16.082,15.461-18.214
	l0.713-2.147C446.509,228.949,447.226,228.921,449.88,229.812z"/>
<path style="fill:#15BDB1;" d="M442.063,227.187c5.707,1.917,6.846,13.966,2.538,26.913c-4.307,12.949-12.427,21.889-18.133,19.973
	c-5.709-1.918-6.846-13.967-2.54-26.917C428.236,234.21,436.355,225.269,442.063,227.187z"/>
<path style="fill:#20D0C2;" d="M386.052,208.05l51.614,21.543c8.942,5.271-0.29,36.663-12.651,38.471l-54.485-13.343L386.052,208.05
	L386.052,208.05z"/>
<path style="fill:#666666;" d="M63.446,48.118l0.103,0.046l-0.105-0.039L63.446,48.118z M65.655,49.086L65.655,49.086
	L396.13,198.594c17.246,20.972,3.58,66.925-23.477,70.578L19.132,188.948c17.837,2.923,41.23-22.857,53.507-59.771
	C84.921,92.259,81.658,57.526,65.655,49.086z M16.895,188.413L16.895,188.413l-0.107-0.026l0.004-0.007L16.895,188.413z"/>
<path style="fill:#807D7D;" d="M63.735,48.216c17.951,6.029,22.061,42.317,9.177,81.052c-12.884,38.733-37.884,65.245-55.835,59.217
	c-17.952-6.029-22.061-42.321-9.178-81.052C20.783,68.698,45.784,42.185,63.735,48.216L63.735,48.216z"/>
<path style="fill:#ECF0F1;" d="M56.357,63.841c11.719,3.936,13.2,31.237,3.308,60.977c-9.893,29.739-27.414,50.658-39.133,46.722
	c-11.717-3.936-13.198-31.237-3.308-60.977C27.116,80.824,44.638,59.905,56.357,63.841z"/>
<path style="fill:#20D0C2;" d="M220.644,509.559l51.615-206.158l-17.025-3.312L209.536,507.78
	C213.21,508.456,216.916,509.042,220.644,509.559z M373.963,483.244L373.963,483.244c-3.616,1.882-7.284,3.678-11.001,5.389
	l-60.244-185.233l17.007-3.312L373.963,483.244z M300.743,508.095L300.743,508.095c-4.129,0.728-8.293,1.36-12.487,1.887
	l-8.344-210.296h16.723L300.743,508.095z"/>
<path style="fill:#666666;" d="M329.632,283.877v11.468c-1.502,14.321-85.344,10.435-82.654-1.779V279.41
	c-1.386,6.269,71.699,9.997,82.078,2.15C329.237,281.722,329.571,282.665,329.632,283.877z"/>
<path style="fill:#20D0C2;" d="M247.868,240.855c33.738,7.657,61.17,13.401,84.953-29.373l14.622,6.811
	c-6.51,21.114-24.465,36.526-40.251,39.62v15.557c11.357,1.887,19.585,4.879,21.863,8.091c-10.379,7.847-83.464,4.119-82.079-2.152
	c0.794-3.612,9.504-5.498,21.872-6.59V254.96C256.73,253.343,248.489,246.058,247.868,240.855z"/>
<g>
</g>
<g>
</g>
<g>
</g>
<g>
</g>
<g>
</g>
<g>
</g>
<g>
</g>
<g>
</g>
<g>
</g>
<g>
</g>
<g>
</g>
<g>
</g>
<g>
</g>
<g>
</g>
<g>
</g>
</svg>
