<?xml version="1.0" encoding="iso-8859-1"?>
<!-- Generator: Adobe Illustrator 19.0.0, SVG Export Plug-In . SVG Version: 6.00 Build 0)  -->
<svg version="1.1" id="Layer_1" xmlns="http://www.w3.org/2000/svg" xmlns:xlink="http://www.w3.org/1999/xlink" x="0px" y="0px"
	 viewBox="0 0 511.995 511.995" style="enable-background:new 0 0 511.995 511.995;" xml:space="preserve">
<path style="fill:#1A91A1;" d="M255.998,511.995c141.001,0,255.998-115.002,255.998-255.998C511.995,114.997,396.998,0,255.998,0
	S0,115.002,0,255.998C0,396.998,115.002,511.995,255.998,511.995z"/>
<g>
	<path style="fill:#FFFFFF;" d="M262.436,414.864h9.612l5.353,60.214h-20.318L262.436,414.864z"/>
	<path style="fill:#FFFFFF;" d="M166.644,97.284l-8.351-8.351l-0.273,0.203c-47.227,34.839-74.985,89.636-74.985,148.34
		c0,101.737,82.472,184.209,184.209,184.209c58.704,0,113.505-27.759,148.34-74.985l0.203-0.273l-8.355-8.36l-0.272,0.379
		c-1.099,1.52-2.222,3.021-3.372,4.503l-2.009,2.591l-5.963-5.967l-3.681,3.686l6.295,6.3l-1.797,2.037
		c-32.848,37.236-79.729,58.427-129.394,58.427c-95.298,0-172.546-77.253-172.546-172.551c0-49.67,21.186-96.55,58.422-129.398
		l2.037-1.797l6.018,6.018l3.686-3.681l-5.681-5.686l2.591-2.005c1.483-1.15,2.984-2.272,4.503-3.372l0.374-0.273V97.284z"/>
</g>
<path style="fill:#20D0C2;" d="M269.249,405.668c92.721,0,168.343-75.622,168.343-168.343S361.97,68.981,269.249,68.981
	s-168.343,75.622-168.343,168.343S176.528,405.668,269.249,405.668z"/>
<path style="fill:#15BDB1;" d="M404.319,222.951c0,89.368-72.445,161.817-161.813,161.817c-34.987,0-67.383-11.103-93.853-29.98
	c30.576,31.389,73.304,50.88,120.59,50.88c92.975,0,168.343-75.368,168.343-168.348c0-82.232-58.958-150.691-136.908-165.415
	c60.625,23.366,103.64,82.181,103.64,151.042V222.951z"/>
<path style="fill:#FFFFFF;" d="M435.639,263.037c-2.577,3.085-1.764,4.148-1.155,6.591c-0.628,3.228-1.335,6.42-2.143,9.579
	c-1.187,0.744-2.466,1.178-3.75,2.208c-0.762,2.383-0.148,4.277-1.45,7.219c-1.376,3.552-1.603,1.654-3.598,4.531
	c-1.455,2.259-1.293,3.182-2.979,5.265c-1.45,1.898-2.217,2.443-3.589,3.672c-6.656,6.124-20.951,6.305-22.175,5.445
	c-3.367-2.877-1.072-3.612-1.912-7.653c-0.818-3.552-2.697-6.526-4.272-9.27l-0.162-0.282c-0.762-1.344-1.455-2.633-1.834-3.861
	c-2.753-8.692-1.76-15.297-6.572-24.114c-6.037-11.39,3.358-17.325,2.974-23.749c-0.152-1.714-0.757-2.757-0.915-4.106
	c-1.145-7.099-1.829-13.468-6.568-19.038c-5.201-6.06-4.512-3.917-2.831-13.893c2.138-11.445-2.753-8.512-9.63-8.813
	c-3.367-10.406-9.944-5.335-16.512-2.268c-4.129,1.894-5.658-0.55-10.323,0.12c-10.392,1.404-2.212,5.875-16.129-5.141
	c-5.806-4.591-1.912-2.268-5.348-8.018c-1.145-2.078-4.665-4.84-6.268-6.923c-5.27-6.605,0.998-13.279,0.078-20.867
	c-1.607-14.078-3.898-1.843,3.977-18.858c4.129-9.057,10.397-9.122,12.004-13.163c1.376-3.607,0.453-6.184,3.058-9.482
	c2.291-2.693,5.579-2.152,6.877-6.369c1.834-5.201-1.681-5.866-5.506-5.995c-1.603-5.45-1.603-4.101-0.388-9.127
	c0.67-2.711,0.12-4.069,0.633-6.683c7.154,2.73,14.078,5.926,20.724,9.565c-1.187,3.487-1.266,6.434-8.965,7.598
	c-0.836,0.125-1.145,0-1.986,0.305c-2.222,0.794-0.919,0.125-2.222,1.409c0.998,2.328-0.379,1.958,3.593,2.508
	c7.265,0.975,8.184-3.487,13.459-4.591c0.975-0.208,3.87-0.43,7.168-0.614c46.113,30.026,76.602,82.033,76.602,141.162
	c0,8.743-0.665,17.329-1.954,25.712L435.639,263.037z M122.789,154.275L122.789,154.275c3.048-5.367,6.388-10.545,9.986-15.519
	c0.005,0.249,0.014,0.499,0.028,0.753c0.536,13.773,13.071,14.567,16.281,8.138c2.138-4.282,1.612-6.609,8.568-5.51
	c0.688,3.677-0.383,6.369-1.302,9.187c-0.61,1.649-2.296,4.646-1.45,6.923c4.97,2.014,5.122-1.783,11.695,2.134
	c0.457,6.554-2.979,13.898,2.065,17.694c3.894,2.877,4.125,0.305,7.565-0.305c3.824-0.67,3.136,1.714,6.656,2.263
	c1.986-2.448,1.145-0.919,2.448-3.921c2.291-5.196,2.901-2.753,8.332-5.93c0.531-0.305,0.988-0.614,1.529-0.984
	c0.61,1.289,1.298,2.508,1.908,3.737c3.977-4.716,4.434-0.125,9.02,1.169c1.977,0.536,3.381,0.739,4.466,0.748
	c3.33,0.046,3.672-1.57,8.226,0.042c0.536,0.249,1.224,0.434,1.838,0.614c0.079,0,0.3,0.125,0.3,0.249
	c0.079,0.065,0.309,0.245,0.383,0.309c0.757,0.85,0.845,1.709,1.45,2.633c3.136,2.998,6.272,6,9.33,8.933
	c6.037,2.388,6.037-2.078,12.919,4.591c2.905,2.753,1.603,2.697,3.215,6.245c0.231,0.554,0.688,1.099,0.993,1.778
	c0.61,1.654,1.298,3.242,1.991,4.831c3.132,4.106,7.413,1.538,11.769,5.76c2.522,2.448,0.619,1.714,6.194,2.688
	c8.642,1.409,5.279,0.614,11.856,5.575c2.517,1.834,3.132,0.794,5.501,2.383c3.289,4.591,2.448,9.552-0.3,13.593
	c-8.485,12.364-5.584,10.341-5.967,20.138c-0.305,5.626-1.912,17.26-7.191,18.664c-19.182,5.39-8.023,9.131-13.071,18.613
	c-1.45,2.702-2.526,3.372-3.441,5.515c-3.82,8.928-1.145,11.935-12.457,9.921c1.072,1.898,0.379,0.605,1.455,2.319
	c3.358,5.201,3.898,9.127-2.988,10.406c-5.736,1.104-3.289,0-3.82,6.369c-2.222,0.915-3.21,0-4.665,1.464
	c1.986,3.677,0.152,0.614,3.519,2.702c-0.619,2.018-1.081,3.977-1.612,5.93c-1.293,4.776-1.681,0.369-2.134,5.94
	c1.986,0.91,3.362,0.73,5.113,3.127c-0.222,1.834-2.06,6.854-2.596,9.732c2.831,4.226,5.127,8.753,11.168,9.187
	c-0.079,3.543,0.757,3.182-2.296,3.907c-2.596,0.619-8.101-1.834-10.401-3.058c-3.972-2.143-7.649-4.956-10.318-8.997
	c-1.529-2.268-0.915-1.164-2.526-3.302c-2.905-3.737-1.755-5.455-2.596-7.963c-0.462-1.473-2.831-3.058-1.838-7.838
	c0.236-1.344,2.374-7.769-0.222-6.665c-2.605,1.039,1.981,0.605-1.612,2.328c-0.845-2.328-1.529-5.755-1.991-8.632
	c-0.919-4.84-2.06-5.021-2.6-7.958c-1.145-6.799,1.76-7.533-1.455-18.863c-2.111-7.492-1.261-25.232-3.487-34.336
	c-0.356-1.45-0.794-2.679-1.326-3.616c-2.065-3.422-7.113-5.011-11.159-7.773c-0.231-0.055-0.379-0.125-0.457-0.245
	c-5.584-3.917-10.854-19.283-15.293-25.034c-2.06-2.762-3.362-1.533-4.282-5.88c-0.993-3.977,0.536-3.302,1.838-6.619
	c-6.803-12.48,8.789-12.3,5.584-27.297c-0.688-2.753-2.674-6.609-4.36-7.833c-3.21,1.409-1.686,2.203-3.372,4.891
	c-2.596-1.464-5.196-2.942-7.718-4.402c-7.875-7.589-3.672-2.083-5.884-7.044c-4.739-10.406-9.251-4.586-14.909-9.727
	c-2.526-2.143-2.984-5.515-7.187-4.896c-6.342,0.85-2.831,1.834-9.404-1.233c-1.834-0.864-3.695-1.778-5.506-2.739L122.789,154.275z
	 M150.035,118.466L150.035,118.466c17.066-17.122,37.8-30.581,60.921-39.116c-0.217,0.79-0.356,1.82-0.48,3.224
	c-3.362,1.039-7.261,2.208-9.63,4.656c-2.365,2.259-4.739,4.526-7.034,6.734c-0.231,0.185-0.383,0.365-0.531,0.49
	c0.841,6.305,0,6.425-3.829,8.886c-3.21,2.074-4.277,2.014-7.261,4.646c-9.552,8.572-4.97,4.586-4.439,19.343
	c-1.986-0.605-3.894-1.284-5.727-1.954c-1.455-9.801,0.531-6.549-7.339-8.817c-8.485-2.448-7.339,1.709-10.854,2.453
	c-1.441,0.314-2.61-0.088-3.797-0.536V118.466z M222.909,75.438L222.909,75.438c2.637-0.753,5.307-1.441,8-2.069
	c-3.649,1.201-4.9,2.748-7.972,3.455C222.937,76.251,222.923,75.798,222.909,75.438z"/>
<path style="fill:#FBB429;" d="M229.445,475.073h75.595c2.804,0,5.099,2.296,5.099,5.099v5.099h-85.793v-5.099
	C224.346,477.369,226.641,475.073,229.445,475.073z"/>
<path style="fill:#FF5B61;" d="M183.202,485.267h168.08c7.348,0,13.357,6.014,13.357,13.362v13.362h-194.8v-13.362
	c0-7.348,6.014-13.362,13.357-13.362H183.202z"/>
<g>
</g>
<g>
</g>
<g>
</g>
<g>
</g>
<g>
</g>
<g>
</g>
<g>
</g>
<g>
</g>
<g>
</g>
<g>
</g>
<g>
</g>
<g>
</g>
<g>
</g>
<g>
</g>
<g>
</g>
</svg>
