<?xml version="1.0" encoding="iso-8859-1"?>
<!-- Generator: Adobe Illustrator 19.0.0, SVG Export Plug-In . SVG Version: 6.00 Build 0)  -->
<svg version="1.1" id="Layer_1" xmlns="http://www.w3.org/2000/svg" xmlns:xlink="http://www.w3.org/1999/xlink" x="0px" y="0px"
	 viewBox="0 0 512 512" style="enable-background:new 0 0 512 512;" xml:space="preserve">
<path style="fill:#5DDDD3;" d="M256,0c141.385,0,256,114.615,256,256S397.385,512,256,512S0,397.385,0,256S114.615,0,256,0z"/>
<g>
	<path style="fill:#FBB429;" d="M17.039,109.987h477.923v19.297H17.039V109.987z"/>
	<path style="fill:#FBB429;" d="M17.039,416.193h477.923v19.297H17.039V416.193z"/>
</g>
<path style="fill:#FFFFFF;" d="M25.02,416.193h461.956V129.279H25.02V416.193z"/>
<g>
	<path style="fill:#F5A209;" d="M17.039,124.892h477.923v4.388H17.039V124.892z"/>
	<path style="fill:#F5A209;" d="M17.039,431.102h477.923v4.388H17.039V431.102z"/>
</g>
<path style="fill:#20D0C2;" d="M384.397,147.551c7.307,0,4.804,2.697,8.508,3.921c2.956,0.984,0.951-0.61,4.406-0.776
	c1.053-0.083,2.106,0.245,3.155,0.12c3.002-0.286,1.45-0.448,2.503-0.979c2.203-1.104,10.013-0.896,11.916-0.208
	c1.903,0.693,1.603,1.104,4.605,1.801c3.857,0.854,8.111-0.859,11.515,1.021c2.157,1.224,1.206,1.593,4.61,1.635
	c2.799,0,5.455-0.693,8.009-0.037c3.002,0.73,1.048-0.125,4.605-0.697c1.15-0.162,1.801,0,2.854,0.365
	c2.503,0.859,1.954,1.432,5.307,1.27c5.907-0.365,9.51,2.531,14.817,3.307c3.658,0.531,7.362-0.286,7.108,4.332
	c-3.806,0.49-6.859-3.025-10.411-0.818c0.152,3.473,2.051,1.266,3.903,4.088c-0.148,0.042-0.346,0.083-0.448,0.125
	c-2.799,0.693-4.055,1.552-6.06,4.286c-2.753,0-4.804-0.651-7.709,0.901c-0.499,4.743,5.404,3.515,4.707,10.586
	c-0.051,1.307-0.051,3.473-0.249,5.312c-2.503-0.245-8.462-6.863-9.612-8.826c-2.102-3.593,4.004-11.561,0.402-11.358
	c-1.302,0.083-0.448,0.859-1.801,2.291c-3.556-0.166-1.903-2.942-6.258-1.27c-1.002,4.004,1.45,3.515-0.448,4.577
	c-1.954,1.062-3.455-0.49-4.91-0.734c-0.3-0.083-9.759,0.448-10.212,0.651c-1.053,1.312-2.956,6.337-3.404,7.602
	c3.104,1.917,5.256,1.469,6.355,1.506c1.506,0.042,2.005,0.984,3.205,1.266c3.552,0.901,0.102-1.182,2.951,0
	c2.152,2.453,4.305,4.864,6.457,7.279c-0.402,0.938-0.753,1.838-1.104,2.734c-2.305-1.797-2.651-5.598-5.506-6.702
	c-0.453,3.921,3.353,2.12,1.252,11.316c-1.801,8.009-3.155,4.988-6.411,5.884c-0.748,0.49-2.753,5.884-2.951,6.785
	c2.402,2.328,5.358,3.556,5.205,8.378c-1.404,0.734-2.305,1.432-4.203,0.896c-2.005-8.254-1.353-4.129-3.755-6.619
	c-2.503-2.614,0.651-5.067-6.309-2.162c-1.053-1.593-0.402-1.432-0.951-3.187c-1.75,0.245-4.152,2.614-4.702,4.452
	c1.501,0.818,2.702,1.88,3.455,2.005c1.455,0.157,2.152-0.938,4.106,0.365c-1.104,2.291-1.903,1.797-2.804,4.129
	c1.598,2.734,4.355,4.697,5.302,8.332c0.051,0.125,0.102,0.286,0.148,0.448c0.554,1.88,0.956,0.448,1.053,3.067
	c0.051,1.917-0.854,2.984-1.501,4.905c-3.252,8.863-8.014,7.644-14.466,10.91c0.097,2.453,2.152,6.415-2.559,5.515
	c-0.346-3.963,1.654-1.921,1.256-5.718c-3.058-1.104-4.808,0.406-6.157,3.755c1.201,5.884,8.009,6.332,6.208,15.32
	c-2.106,1.838-4.208,3.635-6.258,5.436c-1.903-1.27,0.152-0.333-1.649-2.66c-1.903-2.369-4.157-4.046-6.254-6.009
	c-0.152,0.328-0.305,0.656-0.453,0.984c-0.702,1.917-1.603,4.083-1.15,6.009c0.199,0.979,1.801,4.573,2.651,5.349
	c1.501,1.51,3.053,1.838,3.556,4.212c0.199,0.818,0.951,6.905,0.951,7.27c-6.208-2.369-4.355-6.66-6.609-10.826
	c-0.951-1.88-1.201-1.432-2.453-3.27c-0.102-3.349,0.85-6.088,0.102-9.556c-0.503-2.046-1.455-5.03-1.954-7.113
	c-2.254,0.49-4.254,3.76-4.757,0.573c-0.097-0.573-0.199-1.104-0.249-1.593c-1.302-5.889-3.155-4.291-5.058-9.93
	c-3.053,1.021-3.15,1.104-6.757,1.714l-0.046,0.069l0.009,0.208c-1.436,2.078,0.074,1.201-2.448,3.372
	c-3.002,2.573-4.956,6.088-8.309,8.171c-0.402,3.64,0.3,4.453-0.6,8.79c-0.351,1.589-2.102,5.88-4.157,5.556
	c-0.651-0.125-3.404-7.067-4.055-8.988c-1.104-3.265-2.356-5.676-3.15-9.436c-0.453-2-0.757-5.843-1.206-7.191
	c-2.152,0.323-2.051,1.718-4.101,0.245c-1.455-1.062-0.799-1.718-1.603-3.312c-1.704-1.635-3.45-3.27-5.201-4.901
	c-1.353-0.448-6.559,0.328-8.762,0.079c-3.954-0.365-4.305-0.125-6.66-3.349c-4.157,0.203-3.806,1.792-7.857-1.76
	c-2.656-2.286-2.157-5.963-6.009-3.88c-0.148,3.353,1.455,4.088,2.905,5.64c1.048,1.182,2.356,2,2.905,3.593
	c0.051,0.042,0.3,1.552,0.351,1.755c3.755,0.245,4.66-1.593,6.706-3.145c2.005,1.917,0.051,2.249,2.956,3.76
	c2.305,1.187,1.852,0.49,3.353,2.411c0.753,2.577-5.155,9.561-7.108,10.831c-1.501,0.979-2.305,0.406-3.653,1.552
	c-2,1.718,0.254,1.473-3.252,2.781c-3.755,1.39-7.459,4.328-11.413,4.577c-0.854-2.369-1.704-4.78-2.554-7.191
	c-2.503-8.212-2.402-5.025-4.956-9.274c-1.206-1.838-0.702-3.025-1.506-4.66c-0.55-1.224-1.399-1.755-2.152-3.265
	c-1.15-2.328-2.503-5.963-5.155-5.598l-1.289-6.674c0.337-0.005,0.753-0.037,1.289-0.111c0.55-1.141,4.605-11.519-0.651-10.212
	c-1.552,0.406-0.499,0.979-2.702,0.406c-2.305-0.61-0.097-1.062-2.651-0.693c-2.508,0.37-5.51,2.614-7.464-5.104
	c-0.748-2.781-2.102-5.191-5.205-0.984c0.799,1.432,1.349,1.552,2.249,2.942c-0.249,0.406-1.099,1.432-1.399,1.755
	c-1.704,1.718,0.702,0.896-2.055,1.266c-1.501-1.145-1.201-2.614-2.651-4.656c-2.554-3.801-0.901-2.046-2.203-5.681
	c-1.025-0.919-2.72-1.603-4.106-2.503v-0.028l-0.079-0.055c-0.351-0.245-0.702-0.49-1.002-0.776c-2.203-2-2.656-3.797-5.104-3.349
	c-0.051,1.88,0.199,1.958,1.099,3.187c3.404,4.328,2.356,2.859,5.007,4.452l0.097,0.06v0.018c0.619,0.365,1.344,0.878,2.328,1.607
	c-3.39,3.044-0.273,3.381-2.328,4.392v0.005l-0.023,0.009l-0.079,0.042c-0.203,0.079-0.402,0.162-0.55,0.245
	c-0.702-1.797,0.85-0.942-0.956-3.556c-0.998-1.349-1.949-1.755-3.501-2.494c-3.907-1.88-3.404-3.349-5.806-5.801
	c-2.702,0.088-2.102,0.942-4.004,1.921c-2.3,1.145-1.949-0.203-4.656,0.042c-2.203,3.963,0.951,0.656-3.053,3.926
	c-4.808,3.797-0.85,7.764-8.559,8.947c-0.55,0.083-0.753,0-1.298,0.203c-1.404,0.508-0.66,0.111-1.376,0.859l-1.275,0.051l0,0
	c-0.208-1.672-2-1.949-3.912-2.014c-1.048-3.635-1.048-2.734-0.249-6.088c0.453-1.88,0.046-2.781,0.453-4.66
	c0.998-4.697,8.859-0.037,11.113-1.958c1.048-2,1.201-3.958,0-5.88c-1.256-1.921-2.905-1.677-3.755-3.515
	c1.903-1.307,0.499-0.162,2.152-0.531c1.954-0.448,1.7-1.021,4.004-1.469c2.055-0.411,3.358-2.332,5.358-3.635
	c2.85-1.88,1.496-3.556,4.956-4.125c5.556-0.984,1.949-0.818,2.554-6.092c0.845-0.328,1.649-0.697,2.453-1.062
	c1.751,2.332-0.448,1.39,1.649,2.938c0.554-0.323,1.206-0.651,1.806-0.979c-0.3-2.536-1.45-2.046-2.203-5.187
	c-2.753,0.448-3.755,2.817-5.958,1.958c-2.152-0.818-2.249-3.963-2.152-6.577c0.799-1.958,4.804-3.021,6.355-3.515
	c2.508-0.859,2.152-2.573,4.457-4.905c3.007-3.067,0.799,0.042,2.254-3.921c3.302-0.125,1.751-0.249,3.704-1.27l0.079-0.032
	l0.023-0.009l0.176-0.074c1.155-0.531,2.651-0.656,4.157-1.187c5.506-1.88,7.76-0.942,11.764,0.734
	c3.104,1.307,12.466,1.349,13.168,5.353c-2.254,2.406-4.406,0.651-7.658,0.859c0.6,3.099,0.85,3.099,3.603,3.958
	c0.453-1.473-0.199-0.896,0.55-1.838c0.901,0.203,1.801,0.365,2.702,0.531c0.901-3.145,1.954-2.697,5.007-3.062
	c-0.499-2.166-1.053-1.552,0.097-3.27c3.155,0.328,0.605,0.042,2.152,2.614c2.203-0.286,4.36-2.78,7.413-3.108
	c1.903-0.203,1.797,0.531,4.503,0.249c2.203-0.249,2.106-1.062,4.309-0.12c0.799-1.51,0-1.473,1.949-1.838
	c3.007-0.531,5.607,1.344,8.512,1.76c-2.152-2.697-4.203-2.166-1.552-6.66c3.353-0.693,3.658-0.203,5.104,2.369
	c1.002-0.573,1.302-1.141,1.852-1.307c1.501-0.37,2.005,0.942,5.256-1.021c2.055-1.187-1.298-0.411,2.402-1.473
	c1.45-0.37,1.45,0.245,2.753-0.854c2.956-1.104,5.861-2.249,8.813-3.395c3.155-0.037,1.552,0.938,5.159-0.448
	c4.905-1.797,6.309,0.12,10.014,0.249c8.669,0.346,5.598,5.381,19.154,5.381c2.157,0,2.005-0.859,5.058-0.896c0.152,0,0.3,0,0.503,0
	L384.397,147.551z M437.314,221.872L437.314,221.872c0.245,1.958,1.201,3.432,2.854,4.208c1.704-2.781-0.402-2.942,5.806-4.947
	c0.402-0.12,0.804-0.286,1.155-0.448c5.307-3.104,1.654-0.859,5.658-2.49c0.051-2.531-0.554-4.208-0.753-6.947
	c-0.097-3.067-1.099-4.254-3.75-4.739c-0.254,5.681,3.552,3.843-2.605,9.759c-3.201,3.15-5.307-0.527-8.355,5.603H437.314z
	 M402.47,299.135L402.47,299.135c0.351-1.714,0.6-3.838,1.349-5.108c2.356,0,0.203,2,3.755,1.552
	c0.605-1.427,0.605-2.125,0.351-3.635c-1.603-0.365-2.051-0.042-3.205,0.979c-0.351-0.406-0.697-0.813-1.053-1.224
	c-1.654-1.224-1.45,1.598-3.002-1.593c-1.654-3.312,0.199-3.353-3.404-5.635c-2.203-1.39-2.956-2.166-4.757-4.092
	c-3.104-3.39-0.351-1.88-5.506-3.515c-0.102,3.718,0.702,1.51,3.455,5.843c1.155,2.046,2.254,4.088,3.404,6.129
	C395.51,291.652,397.214,299.333,402.47,299.135z M410.429,293.782L410.429,293.782c4.457,0.697,7.658,2.369,8.91,1.473
	c1.353-1.593,0.905-2.656,2.254-4.988c1.801-3.021,0.55-2.083,2.854-4.739c-1.302-4.859-1.903-2.697,0.6-7.639
	c-0.402-1.547-1.501-3.349-2.753-4.286c-1.455,0.938-0.199-0.125-1.201,1.224c-1.755,2-3.556,4.004-5.256,6.004
	c-1.506,1.515-0.905,0.365-3.205,2.249c-0.647,0.365-1.298,0.734-2,1.104c-1.104,0.406-1.806-0.896-2.055,2.494
	c-0.152,1.552,1.399,5.025,1.852,7.108V293.782z M303.712,198.672L303.712,198.672c0.351,4.988,3.252,6.91,5.312,9.196
	c-0.249,2.369-0.804,1.755-0.753,5.067c2.457,1.801,4.254,2.901,7.459,2.005c0.448-4.004-0.804-3.801-2.005-6.536
	c0.199-0.328,0.748-0.739,0.85-0.818c0.901-1.224,0.448,0.49,0.901-1.593c-2.351-0.771-6.157-3.229-6.457-6.452
	c1.15-0.938,0.799-0.37,1.649-0.938c1.852-1.229,0.448,0.651,1.552-1.427c-0.951-1.88-2.005-2.208-4.305-1.27
	c-1.002,0.406-3.658,2.328-4.208,2.776L303.712,198.672z M283.237,199.984L283.237,199.984c-1.552-2.203-1.45-3.312-4.452-3.39
	c-1.201,1.312-2.605,3.27-3.256,5.27c-1.002,3.025-0.3,0.938-0.199,4.208c-0.051,0.125,0,0.291,0,0.411
	c-0.051,1.958-0.503-0.369-0.203,1.432c2.356-0.49,0.55-0.448,2.305-1.025c1.654-0.568,6.706-2.12,8.161-1.755
	c3.455,0.818,6.36,3.598,10.263,0.818c-0.203-3.552-4.406-4.901-7.312-6.457c0.152-3.265,1.002-0.693,0.799-3.838
	c-0.998-0.042-1.603-0.203-2.554,0.203c-2.249,1.021-1.002,1.312-1.002,1.677c0.102,1.755,2.254-0.365-0.046,1.797
	c-0.651,0.573-1.704,0.573-2.503,0.656V199.984z M224.786,175.213L224.786,175.213c-0.092,5.723,1.852,3.801,3.704,6.623
	c-0.845,2.411-0.998,0.531-1.949,3.021c-0.85,2.088,0.199,0.208-0.351,3.843c1.455,0.079,3.603-0.448,5.51-0.614
	c2.702-0.245,2.651-0.494,3.603-3.312c-1.501-1.88-3.002-3.76-4.554-5.635c-1.954-3.025,0-0.947-0.6-3.478
	c-0.448-0.896-0.85-1.792-1.252-2.693c-2.6,0.901-2.351,0.656-4.106,2.245H224.786z"/>
<path style="fill:#FF5B61;" d="M453.185,304.326c2.203,0.697,1.501-0.245,3.15,0.079c3.704,0.697,2.554,5.067,7.362-1.062
	c6.508-0.037-0.102,4.697,9.311,5.681c-0.051-2.203-3.007-5.27-4.106-6.415c0.702-1.718,0.702-0.776,1.002-2.776
	c-0.6-0.37-1.506-0.776-2.055-1.469c-3.75-4.457,1.353-0.979-6.813-4.905c-0.998-0.49-4.707-2.203-5.201-2.286
	c-3.104-0.577-2.905,2.286-5.459,2.656c-1.649-2.083-0.55-5.76-3.501-5.432c-3.806,0.411,0.102,6.452,0.102,6.452
	c1.547,1.718,1.852-0.286,6.06,3.067c4.152,3.395,0.799,3.801,0.152,6.415L453.185,304.326z M447.827,317.356L447.827,317.356
	c0.697,1.312,2.351,2.494,3.653,3.76c5.155,4.984,4.91-5.191,7.256-9.644c1.206-2.369-0.148-0.896,1.801-1.838
	c0.6,2.083,0.651,2.984,0.55,5.884c2.3,2.046,1.552-0.328,1.751,3.593c0.402,10.623,0.854,5.187,2.651,8.988
	c0.947,2.656,1.954,5.27,2.956,7.884c1.903,4.004-1.307,9.524-3.256,12.628c-1.954,3.187-3.205,3.681-5.556,6.212
	c-8.462,9.279-3.506,6.212-9.362,8.175c-2.254,0.771-1.404,1.552-3.556,1.469c-2.106-0.042-5.612-0.406-7.464-1.797
	c0-3.229,0.3-5.76-0.998-8.004c-1.903,1.266-0.901,1.344-2.951,1.672c-0.753-3.88-1.206-6.166-5.312-6.088
	c-0.448,0-8.605,2.125-8.96,2.291c-1.501,0.818-2.152,1.958-3.501,2.286c-1.654,0.453-3.358-0.162-5.058,0.328
	c-2.85,0.896-4.854,4.208-7.256,0.531c0.901-3.635,2.102-0.818,2.453-7.639c0.351-5.556-0.6-5.27,0.402-8.91
	c0.554-2.12,0.448-4.984,2.005-6.942c0.702-0.818,4.508-3.229,5.561-3.552c12.919-3.718,7.108-5.062,10.813-7.644
	c1.399-0.975,1.353,0.125,2.956-1.875c1.302-1.635,0.051-0.979,1.954-2.531c2.901-2.369,3.603-0.291,5.506,0.531
	c2.203-1.39,1.801-2.947,3.409-4.249c1.45-1.224,1.099-0.365,2.554-1.141c1.751-0.979,0.6-0.979,2.152-1.515
	c1.852,2.249,2.854,1.349,5.358,1.386c-0.148,1.51-0.148,1.801-0.901,3.187c-0.651,1.312-0.152,0.249-0.951,1.39
	c-0.199,0.411-0.3,0.245-0.651,1.182L447.827,317.356z"/>
<path style="fill:#FBB429;" d="M286.29,232.915c-0.55,1.838,2.453,8.051,3.201,9.556c0.753,1.515,1.954,2.166,2.305,4.337
	c0.499,2.979-0.102,2.61,1.501,4.614c3.358,4.125-0.152,3.39,5.058,7.436c3.903,3.025,2.905,3.926,4.559,7.967
	c2.554,0.734,10.161-2.739,11.464-1.718c1.552,2.822-1.801,7.316-2.651,9.764c-2.804,8.217-7.709,8.092-11.468,14.383
	c-2.051,3.39-3.002,3.843-4.905,7.926c-2.157,4.619,4.355,17.408,0.453,22.761c-0.854,1.229-3.607,1.963-7.062,5.681
	c-3.653,4.041,0.097,3.349-1.302,10.092c-1.104,1.552-2.453,1.635-3.806,2.739c-0.499,1.593-0.097,2.859-0.951,4.822
	c-0.901,2.369-1.048,1.099-2.351,3.025c-0.951,1.51-0.854,2.125-1.954,3.515c-0.947,1.266-1.45,1.635-2.351,2.453
	c-4.355,4.088-13.718,4.208-14.517,3.635c-2.203-1.921-0.702-2.411-1.252-5.108c-0.531-2.369-1.764-4.355-2.799-6.185v-0.06
	l-0.079-0.139c-0.499-0.896-0.951-1.76-1.201-2.573c-1.801-5.801-1.145-10.212-4.305-16.096c-3.954-7.607,2.203-11.565,1.949-15.856
	c-0.102-1.141-0.499-1.838-0.605-2.744c-0.748-4.739-1.196-8.988-4.3-12.706c-3.404-4.041-2.956-2.614-1.852-9.27
	c1.395-7.639-1.801-5.681-6.309-5.884c-2.203-6.947-6.512-3.556-10.813-1.515c-2.702,1.266-3.704-0.365-6.762,0.083
	c-6.813,0.938-1.45,3.926-10.563-3.432c-3.806-3.067-1.252-1.515-3.501-5.353c-0.753-1.39-3.053-3.229-4.106-4.619
	c-3.45-4.411,0.651-8.863,0.055-13.93c-1.053-9.399-2.554-1.229,2.605-12.586c2.702-6.046,6.808-6.088,7.861-8.785
	c0.901-2.406,0.296-4.129,2-6.332c1.501-1.797,3.653-1.432,4.508-4.249c0.282-0.822,0.37-1.473,0.305-1.995l0,0l1.275-0.051
	l-0.079,0.083c0.651,1.552-0.249,1.307,2.351,1.677c4.757,0.651,5.358-2.328,8.813-3.067c1.704-0.369,12.369-0.818,13.117-0.614
	c2.3,2.619,0.402,4.457,0.402,6.66c2.508,1.349,6.06,1.677,7.51,3.067c1.649,1.593,0.85,1.344,1.649,1.63l0.097,0.032v0.014
	c0.3,0.092,0.734,0.249,1.478,0.54c2.005,0.693,1.903,1.099,4.051,1.266c1.954-6.66-0.046-5.963,9.362-2.905
	c9.815,3.275,5.404,0.286,9.561,0.734c1.667,0.171,1.617,0.633,3.067,0.6l1.289,6.674V232.915z M310.922,312.672L310.922,312.672
	c-2.199,1.141-2.503,3.755-4.152,5.228c-1.801,1.677-4.208,0.901-4.91,4.004c-0.901,3.88,1.501,2.697-1.15,7.764
	c-0.951,1.88-1.002,6.582,0.448,7.967c4.355,4.286,6.711-6.536,7.709-9.93c0.753-2.411,1.455-5.15,2.249-7.395
	c0.804-2.411,1.954-4.54-0.199-7.639H310.922z"/>
<path style="fill:#FF5B61;" d="M137.173,324.224c-1.353-2.282-4.656-3.344-7.312-5.187c-0.148-0.037-0.249-0.079-0.3-0.162
	c-3.653-2.614-7.108-12.873-10.018-16.711c-1.349-1.838-2.199-1.021-2.799-3.921c-0.651-2.651,0.351-2.203,1.201-4.416
	c-4.457-8.337,5.76-8.212,3.653-18.221c-0.453-1.838-1.751-4.411-2.854-5.228c-2.102,0.938-1.099,1.469-2.203,3.265
	c-1.704-0.984-3.404-1.963-5.053-2.942c-5.159-5.067-2.402-1.386-3.857-4.697c-3.104-6.947-6.06-3.067-9.759-6.499
	c-1.658-1.432-1.954-3.681-4.711-3.27c-4.152,0.573-1.852,1.224-6.157-0.818c-3.658-1.755-7.464-3.801-10.013-6.166
	c-0.102-3.681,1.205-3.843-1.048-7.275c-1.104-1.76-2.605-3.187-3.506-4.577c-1.603-2.656,0.748-0.245-3.256-5.473
	c-2.651-3.473,0.453-3.801-2.554-6.208c-3.949,1.917,2.254,7.348,4.208,16.138c-1.7-0.245-2.854-1.64-3.506-3.598
	c-1.002-3.229,0.051-2.406-3.053-3.76c0.148-5.561,1.201-0.656-0.998-6.171c-0.753-2.041-0.3-2.942-1.053-5.025
	c-0.6-1.797,0.3-0.166-0.702-1.187c-0.397-1.224,0.3-0.079-0.6-1.021c-0.901-1.025-0.051-0.12-0.854-0.734
	c-2.005-1.432-2.453-3.229-2.804-6.088c-1.002-9.316,2.005-10.092,5.455-16.752c2.656-4.785,2.152-4.083,0.051-8.009
	c0.503-1.963,1.155-2.005,1.002-4.702c-0.152-3.145-0.351-1.718,0.351-4.125c-0.102-0.125-0.249-0.203-0.351-0.245
	c-0.097,0-0.249-0.12-0.351-0.162c-0.102-0.037-0.3-0.125-0.402-0.203c-0.55-0.166-1.048-0.37-1.654-0.573
	c0.249-4.984,1.002-7.93-4.554-8.499c-2.453-0.249-4.004-1.307-4.804-1.266c-0.457,0-2.757,1.187-4.503,1.635
	c-3.108,0.859-1.455,0.771-4.309,0.245c-1.538-0.3-5.852,0.199-9.579-0.864l0.522-5.381c2.12-0.291,4.272-0.425,5.75-1.806
	c-1.45-1.266-2.951-0.37-5.104-1.141c0.402-3.968,6.36-2.619,8.96-2.619c0.351-2.979-1.201-2.896,0.199-4.041
	c0.804-0.656,16.369-4.78,20.175-4.004c5.806,1.104,11.612,2.208,17.417,3.27c3.556,0.365,9.21-2.125,12.868-1.963
	c2.753,0.166,0.249,0.739,3.653,0.984c2.356,0.162,2.453-0.536,5.058,0.245c2.402,0.734,1.252,0.938,4.106,0.938
	c0.448-1.593,0.901-3.233,1.404-4.864c-2.508,0.411-4.009,1.353-6.462,0.776c0.102-2.411,3.104-3.39,4.707-4.249
	c5.455-2.859,9.21,1.838,15.122,2.286c2.199,0.162,3.801-1.432,6.355-1.51c-0.85,1.677-1.399,1.312-2.605,3.515
	c1.104,3.025-0.448-0.984,0.854,1.718c0.199,0.328,0.351,0.328,0.55,1.182c-4.106,1.021-1.552,1.51-7.261,1.062
	c0.702,1.021-0.6,0.453,1.603,1.51c1.852,0.896,4.508,0.406,6.462,0.328c0.651-1.224,1.048-2.286,2.199-2.739
	c0.453-0.162,1.002-0.203,1.751-0.162c0.102,0.61,0.249,1.224,0.402,1.838c0,0.042,0.102,0.448,0.055,0.37
	c0.051-0.083,0.097,0.245,0.148,0.37c3.155-1.88,0.499-1.921,2.199-5.312c-2.656-0.536-2.3-0.208-3.954-1.921
	c1.603-1.801,4.707-2.416,7.011-2.249c-0.152,1.635-0.901,1.598-0.305,2.984c1.801-1.141,3.058-4.208,5.958-3.635
	c0.554,0.406,1.205,0.776,1.801,1.141c-1.501,1.432-3.75,1.51-5.704,2.332c-0.854,8.863,2.753,1.432,1.547,7.515
	c2.152-0.162,4.258-1.755,5.058-3.39c-0.799-1.067-1.949-1.067-2.605-2.328c0.508-1.635,1.584-2.873,3.104-3.607
	c1.03-0.499,2.259-0.762,3.658-0.762c15.916,0.12,8.355,0.854,13.265,3.145c1.099,0.49,3.053,0.739,3.704,1.718
	c1.002,1.552,0.051,3.021,1.649,4.249c1.404,1.058,1.607-0.042,3.459,2.328c-0.402,1.344-1.353,2.739-3.302,2.776
	c-2.702,0.042-1.099-1.838-4.009-1.552c0.051,2.776,2.757,3.843,0.249,5.353c-2.203,1.349-0.799-0.49-2.453,0.448
	c-0.051,0.042-0.199,0.125-0.249,0.162c-0.097,0.083-0.199,0.203-0.249,0.282c-0.3,0.333-0.554,0.614-0.799,0.905
	c-4.004-1.104-3.256-0.614-5.658-3.312c-0.896-1.021-1.048-1.27-2.651-1.145c-1.002,0.037-2.3,0.485-3.256-0.411
	c1.954-2.494,2.905-0.083,5.76-1.552c0.499-0.249,3.653-2.734,4.157-3.312c-0.85-1.958-0.102-0.328-1.349-1.593
	c-2.808-2.901-3.607-2.166-7.413-2.166c-1.783,2.088-3.118,4.674-5.053,5.806v0.005c-1.173,0.684-2.563,0.836-4.406,0.037
	c0.85,3.515,3.053,0.818,3.252,5.067c-1.45-0.286-2.203-1.025-3.704-0.49c-3.205,1.224-0.351,1.099-0.102,1.755
	c0,0.042,1.501,0.203,0,0.776c-1.654,0.614-0.249-0.328-3.45-2.245c0.448-0.818,0.901-1.672,1.349-2.531
	c-2.6,0.818-5.857,2.125-8.91,3.635c-3.459,1.755-6.711,3.76-8.66,5.598c-0.051,3.067,0.499,1.021,0.804,4.656
	c4.656,0.291,3.155,1.718,7.81,3.067c0.905,0.245,2.055,0.49,3.459,0.734c0,2.286-2.005,4.004-0.605,6.374
	c3.256,2.328,3.358-2.208,4.162-5.108c11.016-2.346,5.704-5.644,8.554-11.819v-0.005c0.43-0.924,1.035-1.908,1.908-2.97
	c0.85,0.042,4.305,0.411,5.058,0.577c2.503,0.443,1.155,1.058,3.857,2.282c-0.051,2.208-1.15,5.067,2.051,4.54
	c2.453-0.448,1.903-2.416,4.905-2.905c1.353,3.229,1.002,4.619,1.603,8.499c7.21,2.864,4.004,5.192,2.605,10.545
	c0.905,0.448,1.852,0.859,2.808,1.266c-0.051,1.552-0.102,3.067-0.152,4.577c-0.148,0-7.709-1.677-8.212-1.834
	c1.15-3.358,3.252-3.39,4.61-6.827c-2.702,0.49-2.503,1.344-4.457,1.958c-1.751,0.536-3.104,0.166-4.956,0.411
	c-0.651,2.203-0.046-1.926,0.152,0.896c0.102,1.062,0.6,0.042-0.102,1.187c-2.503-1.187-1.654-3.968-6.305-1.39
	c1.048,0.49,2.102,0.938,3.201,1.39c-0.148,3.145-0.397,0.771-1.048,2.859c-1.603,5.353,4.355,2.041,5.907,1.76
	c-0.406,2.817-2.106,2.817-4.508,3.593c-2.651,0.813-3.455,1.921-5.556,2.411c0-3.353-0.499-0.531,0.951-2.859
	c-2.102,0.199-3.658,1.182-5.653,2.046l-0.199,0.079l0,0c-2.573,1.067-2.965,1.224-3.256,4.573
	c-2.199,0.697-4.757,1.473-6.305,3.108c-1.552,1.51-3.104,3.021-4.61,4.494c-0.148,0.12-0.249,0.245-0.346,0.323
	c0.55,4.208,0,4.286-2.503,5.926c-2.106,1.39-2.804,1.349-4.757,3.104c-6.258,5.723-3.256,3.067-2.905,12.914
	c-1.298-0.411-2.554-0.864-3.75-1.312c-0.951-6.54,0.351-4.369-4.804-5.884c-5.561-1.63-4.808,1.141-7.108,1.635
	c-2.554,0.573-3.81-2.369-7.51,0.079c-2.051,1.432-4.004,2.369-4.503,4.901c-0.605,3.067-1.954,5.312-1.755,8.706
	c0.351,9.196,8.563,9.723,10.665,5.432c1.399-2.854,1.053-4.406,5.607-3.672c0.448,2.453-0.254,4.249-0.85,6.129
	c-0.402,1.104-1.506,3.104-0.951,4.619c3.252,1.344,3.353-1.182,7.658,1.427c0.3,4.374-1.954,9.279,1.349,11.81
	c2.554,1.926,2.702,0.208,4.956-0.203c2.503-0.448,2.051,1.145,4.355,1.515c1.298-1.635,0.748-0.614,1.603-2.614
	c1.506-3.473,1.903-1.838,5.459-3.963c0.351-0.203,0.651-0.406,1.002-0.656c0.397,0.859,0.85,1.677,1.247,2.494
	c2.605-3.145,2.905-0.083,5.907,0.781c1.289,0.36,2.212,0.49,2.924,0.499l0,0c2.18,0.032,2.402-1.048,5.385,0.028
	c0.356,0.166,0.804,0.286,1.205,0.411c0.046,0,0.199,0.083,0.199,0.162c0.055,0.042,0.203,0.162,0.254,0.208
	c0.494,0.573,0.55,1.141,0.951,1.76c2.055,2,4.106,4.004,6.111,5.967c3.949,1.593,3.949-1.395,8.457,3.062
	c1.898,1.838,1.053,1.801,2.102,4.171c0.152,0.369,0.448,0.734,0.651,1.187c0.402,1.104,0.85,2.166,1.302,3.229
	c2.051,2.739,4.854,1.021,7.709,3.838c1.649,1.635,0.402,1.145,4.055,1.797c5.658,0.938,3.455,0.411,7.76,3.723
	c1.654,1.219,2.051,0.527,3.603,1.589c2.152,3.062,1.598,6.374-0.199,9.071c-5.556,8.254-3.653,6.905-3.907,13.441
	c-0.199,3.76-1.252,11.519-4.707,12.461c-12.563,3.598-5.256,6.088-8.559,12.42c-0.951,1.801-1.654,2.249-2.254,3.681
	c-2.499,5.963-0.748,7.963-8.161,6.619c0.702,1.266,0.249,0.406,0.956,1.547c2.199,3.478,2.554,6.092-1.954,6.947
	c-3.755,0.734-2.152,0-2.503,4.249c-1.455,0.614-2.106,0-3.058,0.979c1.302,2.453,0.102,0.411,2.305,1.801
	c-0.402,1.349-0.702,2.656-1.053,3.963c-0.85,3.187-1.099,0.245-1.399,3.968c1.302,0.61,2.203,0.485,3.353,2.083
	c-0.148,1.224-1.349,4.577-1.7,6.494c1.852,2.822,3.358,5.843,7.307,6.134c-0.051,2.365,0.499,2.12-1.501,2.61
	c-1.704,0.411-5.307-1.224-6.813-2.042c-2.605-1.432-5.007-3.312-6.757-6.004c-0.998-1.51-0.6-0.776-1.654-2.203
	c-1.903-2.494-1.15-3.64-1.7-5.312c-0.3-0.979-1.852-2.042-1.205-5.228c0.152-0.896,1.552-5.187-0.148-4.452
	c-1.704,0.697,1.303,0.406-1.053,1.552c-0.554-1.552-1.002-3.843-1.302-5.76c-0.6-3.229-1.349-3.353-1.704-5.312
	c-0.748-4.54,1.155-5.03-0.951-12.586c-1.381-5.002-0.827-16.84-2.286-22.918c-0.217-0.85-0.457-1.686-0.868-2.416L137.173,324.224z
	"/>
<path style="fill:#FFFFFF;" d="M86.477,109.987l168.41-87.974l1.109-0.582l1.109,0.582l168.41,87.974h-11.362L255.995,27.371
	L97.839,109.987H86.477z"/>
<path style="fill:#20D0C2;" d="M256.776,16.623c5.972,0,10.817,4.845,10.817,10.817s-4.84,10.817-10.817,10.817
	c-5.972,0-10.817-4.84-10.817-10.817C245.959,21.468,250.799,16.623,256.776,16.623z"/>
<path style="fill:#FFFFFF;" d="M256.508,16.748c5.275,0,9.547,4.272,9.547,9.547s-4.272,9.547-9.547,9.547s-9.547-4.272-9.547-9.547
	S251.233,16.748,256.508,16.748z"/>
<path style="fill:#EC4B53;" d="M72.635,208.847h49.264l-0.891-7.907H73.499L72.635,208.847z"/>
<g>
	<path style="fill:#FFFFFF;" d="M97.262,180.252v25.597c-13.575-9.002-18.004,2.226-24.632,2.998l2.914-25.837
		c6.739,0.199,12.037-9.288,21.713-2.757H97.262z"/>
	<path style="fill:#FFFFFF;" d="M97.262,180.252v25.597c13.579-9.002,18.004,2.226,24.632,2.998l-2.914-25.837
		C112.236,183.208,106.943,173.721,97.262,180.252z"/>
</g>
<g>
	<path style="fill:#DFE1E3;" d="M94.482,184.072c0.249,0.166,0.328,0.522,0.185,0.799c-0.148,0.277-0.471,0.365-0.721,0.203
		c-0.014-0.009-4.282-2.947-8.725-1.039c-4.707,2.018-6.97,2.854-6.974,2.859c-0.273,0.092-0.573-0.079-0.656-0.388
		c-0.083-0.309,0.069-0.637,0.346-0.73c0.005,0,2.231-0.827,6.905-2.831C89.775,180.825,94.472,184.063,94.482,184.072z"/>
	<path style="fill:#DFE1E3;" d="M94.482,187.231c0.249,0.162,0.328,0.522,0.185,0.799c-0.148,0.277-0.471,0.369-0.721,0.203
		c-0.014-0.009-4.282-2.947-8.725-1.039c-4.707,2.018-6.97,2.854-6.974,2.859c-0.273,0.092-0.573-0.079-0.656-0.388
		c-0.083-0.309,0.069-0.637,0.346-0.73c0.005,0,2.231-0.827,6.905-2.831C89.775,183.984,94.472,187.222,94.482,187.231z"/>
	<path style="fill:#DFE1E3;" d="M94.482,190.386c0.249,0.162,0.328,0.522,0.185,0.799c-0.148,0.277-0.471,0.37-0.721,0.199
		c-0.014-0.009-4.365-2.947-8.905-1.035c-4.785,2.018-7.094,2.854-7.099,2.859c-0.277,0.092-0.573-0.079-0.656-0.388
		c-0.083-0.309,0.069-0.637,0.346-0.73c0.009,0,2.268-0.822,7.039-2.836C89.687,187.139,94.472,190.376,94.482,190.386z"/>
	<path style="fill:#DFE1E3;" d="M94.477,193.54c0.249,0.162,0.337,0.517,0.194,0.794c-0.143,0.277-0.462,0.379-0.716,0.217
		c-0.014-0.009-4.434-2.956-9.044-1.039c-4.859,2.018-7.187,2.854-7.196,2.859c-0.277,0.092-0.573-0.079-0.656-0.388
		c-0.083-0.309,0.069-0.637,0.351-0.73c0.005,0,2.309-0.827,7.136-2.836C89.627,190.303,94.463,193.531,94.477,193.54z"/>
	<path style="fill:#DFE1E3;" d="M86.551,195.873c0.286,0.046,0.485,0.346,0.443,0.665c-0.042,0.319-0.314,0.54-0.6,0.49
		c-1.852-0.314-4.282,0.776-6.245,1.658c-1.021,0.457-1.917,0.864-2.61,1.012c-0.286,0.065-0.563-0.143-0.619-0.457
		c-0.055-0.319,0.129-0.628,0.416-0.693c0.6-0.134,1.455-0.517,2.42-0.947c2.083-0.933,4.66-2.092,6.794-1.732V195.873z"/>
	<path style="fill:#DFE1E3;" d="M100.749,185.07c-0.249,0.166-0.573,0.079-0.721-0.203c-0.148-0.277-0.069-0.633,0.18-0.799
		c0.014-0.009,4.711-3.247,9.644-1.127c4.674,2.005,6.896,2.831,6.9,2.831c0.277,0.092,0.434,0.42,0.351,0.73
		c-0.088,0.309-0.379,0.48-0.656,0.388c-0.009-0.005-2.268-0.841-6.974-2.859C105.026,182.118,100.758,185.06,100.749,185.07z"/>
	<path style="fill:#DFE1E3;" d="M100.749,188.229c-0.249,0.166-0.573,0.074-0.721-0.203c-0.148-0.277-0.069-0.637,0.18-0.799
		c0.014-0.009,4.711-3.247,9.644-1.127c4.674,2.005,6.896,2.831,6.9,2.831c0.277,0.092,0.434,0.42,0.351,0.73
		c-0.088,0.309-0.379,0.48-0.656,0.388c-0.009-0.005-2.268-0.841-6.974-2.859C105.026,185.282,100.758,188.22,100.749,188.229z"/>
	<path style="fill:#DFE1E3;" d="M100.749,191.388c-0.249,0.166-0.573,0.074-0.721-0.199c-0.148-0.277-0.069-0.637,0.18-0.799
		c0.014-0.009,4.827-3.242,9.87-1.132c4.799,2.014,7.076,2.836,7.081,2.836c0.277,0.092,0.43,0.42,0.346,0.73
		s-0.379,0.48-0.656,0.388c-0.005-0.005-2.328-0.841-7.145-2.859c-4.568-1.912-8.947,1.03-8.96,1.035H100.749z"/>
	<path style="fill:#DFE1E3;" d="M100.735,194.552c-0.249,0.162-0.573,0.065-0.716-0.217c-0.143-0.277-0.06-0.633,0.194-0.794
		c0.014-0.009,4.937-3.178,10.097-1.007c4.924,2.074,7.251,2.924,7.261,2.924c0.277,0.097,0.434,0.42,0.346,0.73
		c-0.083,0.309-0.379,0.48-0.656,0.383c-0.009,0-2.388-0.868-7.321-2.947c-4.697-1.977-9.191,0.915-9.205,0.924V194.552z"/>
	<path style="fill:#DFE1E3;" d="M101.285,197.914c-0.263,0.134-0.577,0-0.697-0.291c-0.12-0.296,0-0.642,0.263-0.776
		c5.727-2.887,10.078-0.647,10.868-0.24l0.102,0.051c0.263,0.134,0.383,0.48,0.263,0.776c-0.12,0.296-0.43,0.425-0.693,0.296
		l-0.102-0.051l-0.005-0.005C110.573,197.309,106.583,195.245,101.285,197.914z"/>
</g>
<path style="fill:#ECF0F1;" d="M96.251,179.601l1.012,0.651l1.021-0.651l0.009,25.597l-1.03,0.656l-1.002-0.637l-0.009-25.606
	V179.601z"/>
<path style="fill:#15BDB1;" d="M341.932,208.653h49.264l-0.891-7.907h-47.513l-0.864,7.907H341.932z"/>
<g>
	<path style="fill:#FFFFFF;" d="M366.569,180.058v25.597c-13.579-9.002-18.004,2.226-24.632,2.993l2.914-25.837
		c6.743,0.203,12.041-9.288,21.717-2.757V180.058z"/>
	<path style="fill:#FFFFFF;" d="M366.569,180.058v25.597c13.575-9.002,18.004,2.226,24.632,2.993l-2.914-25.837
		c-6.739,0.203-12.037-9.288-21.717-2.757V180.058z"/>
</g>
<g>
	<path style="fill:#DFE1E3;" d="M363.788,183.873c0.249,0.166,0.328,0.527,0.18,0.804c-0.148,0.273-0.471,0.365-0.721,0.199
		c-0.014-0.009-4.277-2.951-8.725-1.039c-4.707,2.023-6.965,2.859-6.974,2.859c-0.277,0.092-0.573-0.079-0.656-0.383
		c-0.088-0.309,0.069-0.637,0.346-0.73c0.005-0.005,2.226-0.827,6.9-2.831c4.933-2.12,9.63,1.118,9.644,1.127L363.788,183.873z"/>
	<path style="fill:#DFE1E3;" d="M363.788,187.033c0.249,0.166,0.328,0.527,0.18,0.804c-0.148,0.277-0.471,0.365-0.721,0.199
		c-0.014-0.009-4.277-2.947-8.725-1.039c-4.707,2.023-6.965,2.859-6.974,2.859c-0.277,0.097-0.573-0.079-0.656-0.388
		c-0.088-0.309,0.069-0.637,0.346-0.73c0.005-0.005,2.226-0.827,6.9-2.831c4.933-2.12,9.63,1.118,9.644,1.127H363.788z"/>
	<path style="fill:#DFE1E3;" d="M363.788,190.192c0.249,0.166,0.328,0.522,0.18,0.799s-0.471,0.365-0.721,0.199
		c-0.014-0.009-4.365-2.951-8.905-1.035c-4.785,2.018-7.094,2.854-7.099,2.854c-0.277,0.097-0.573-0.079-0.656-0.388
		c-0.083-0.305,0.069-0.633,0.346-0.73c0.005-0.005,2.263-0.822,7.039-2.836c5.016-2.111,9.801,1.118,9.815,1.132V190.192z"/>
	<path style="fill:#DFE1E3;" d="M363.779,193.346c0.254,0.157,0.337,0.517,0.194,0.799c-0.143,0.277-0.466,0.374-0.716,0.212
		c-0.009-0.009-4.434-2.956-9.039-1.039c-4.859,2.018-7.187,2.854-7.196,2.854c-0.277,0.092-0.573-0.079-0.656-0.388
		c-0.083-0.309,0.069-0.637,0.346-0.73c0.005,0,2.309-0.827,7.136-2.836c5.076-2.111,9.917,1.118,9.93,1.122V193.346z"/>
	<path style="fill:#DFE1E3;" d="M355.849,195.679c0.286,0.046,0.485,0.346,0.443,0.665s-0.309,0.54-0.6,0.494
		c-1.852-0.314-4.282,0.776-6.245,1.658c-1.016,0.457-1.917,0.864-2.605,1.012c-0.286,0.065-0.563-0.143-0.619-0.462
		c-0.055-0.314,0.129-0.624,0.416-0.688c0.6-0.134,1.455-0.517,2.42-0.951C351.142,196.473,353.719,195.314,355.849,195.679z"/>
	<path style="fill:#DFE1E3;" d="M370.047,184.876c-0.249,0.162-0.573,0.074-0.721-0.199c-0.148-0.277-0.069-0.637,0.18-0.804
		c0.014-0.009,4.711-3.247,9.639-1.127c4.674,2.005,6.896,2.831,6.905,2.831c0.277,0.092,0.43,0.42,0.346,0.73
		c-0.083,0.309-0.379,0.48-0.656,0.383c-0.005,0-2.268-0.836-6.974-2.859c-4.443-1.908-8.711,1.035-8.725,1.039L370.047,184.876z"/>
	<path style="fill:#DFE1E3;" d="M370.047,188.035c-0.249,0.166-0.573,0.079-0.721-0.199c-0.148-0.277-0.069-0.637,0.18-0.804
		c0.014-0.009,4.707-3.247,9.639-1.127c4.674,2.009,6.896,2.831,6.905,2.831c0.277,0.092,0.43,0.42,0.346,0.73
		c-0.083,0.309-0.379,0.48-0.656,0.388c-0.005,0-2.268-0.836-6.974-2.859c-4.443-1.908-8.711,1.035-8.725,1.039H370.047z"/>
	<path style="fill:#DFE1E3;" d="M370.047,191.194c-0.249,0.166-0.573,0.079-0.721-0.199c-0.148-0.277-0.069-0.637,0.18-0.799
		c0.014-0.009,4.822-3.242,9.87-1.132c4.803,2.009,7.076,2.831,7.081,2.836c0.277,0.092,0.434,0.42,0.346,0.73
		c-0.083,0.309-0.379,0.485-0.656,0.388c-0.005-0.005-2.328-0.841-7.145-2.854c-4.568-1.912-8.947,1.03-8.96,1.035L370.047,191.194z
		"/>
	<path style="fill:#DFE1E3;" d="M370.042,194.358c-0.249,0.157-0.573,0.065-0.716-0.212c-0.143-0.277-0.055-0.637,0.194-0.799
		c0.014-0.009,4.937-3.178,10.097-1.007c4.924,2.069,7.256,2.924,7.261,2.924c0.277,0.092,0.434,0.42,0.346,0.73
		c-0.083,0.309-0.379,0.48-0.656,0.388c-0.005-0.005-2.388-0.868-7.321-2.947C374.55,191.457,370.056,194.353,370.042,194.358z"/>
	<path style="fill:#DFE1E3;" d="M370.587,197.72c-0.263,0.129-0.573,0-0.693-0.291c-0.12-0.296,0-0.642,0.263-0.776
		c5.727-2.887,10.078-0.647,10.868-0.24l0.102,0.051c0.263,0.129,0.383,0.48,0.263,0.771c-0.12,0.296-0.43,0.425-0.697,0.296
		l-0.102-0.051l0,0h-0.005C379.875,197.111,375.885,195.051,370.587,197.72z"/>
</g>
<path style="fill:#ECF0F1;" d="M365.557,179.407l1.012,0.651l1.021-0.656L367.599,205l-1.03,0.656l-1.002-0.642L365.557,179.407z"/>
<path style="fill:#F5A209;" d="M225.447,265.455h49.264l-0.891-7.907h-47.509L225.447,265.455z"/>
<g>
	<path style="fill:#FFFFFF;" d="M250.079,236.86v25.597c-13.575-9.002-18.004,2.226-24.632,2.998l2.914-25.837
		C235.1,239.82,240.398,230.329,250.079,236.86z"/>
	<path style="fill:#FFFFFF;" d="M250.079,236.86v25.597c13.575-9.002,18.004,2.226,24.632,2.998l-2.914-25.837
		C265.057,239.82,259.76,230.329,250.079,236.86z"/>
</g>
<g>
	<path style="fill:#DFE1E3;" d="M247.298,240.675c0.249,0.166,0.328,0.527,0.18,0.804c-0.148,0.273-0.471,0.365-0.721,0.199
		c-0.009-0.009-4.277-2.951-8.725-1.039c-4.707,2.023-6.965,2.859-6.974,2.859c-0.277,0.092-0.573-0.079-0.656-0.383
		c-0.083-0.309,0.069-0.637,0.346-0.73c0.009-0.005,2.231-0.827,6.905-2.831c4.933-2.12,9.63,1.118,9.644,1.127V240.675z"/>
	<path style="fill:#DFE1E3;" d="M247.298,243.834c0.249,0.166,0.328,0.527,0.18,0.804s-0.471,0.365-0.721,0.199
		c-0.009-0.009-4.282-2.951-8.725-1.039c-4.707,2.023-6.965,2.859-6.974,2.859c-0.277,0.092-0.573-0.079-0.656-0.388
		c-0.083-0.309,0.069-0.637,0.346-0.73c0.009,0,2.231-0.822,6.905-2.831C242.587,240.587,247.284,243.825,247.298,243.834z"/>
	<path style="fill:#DFE1E3;" d="M247.298,246.993c0.249,0.166,0.328,0.522,0.18,0.799c-0.148,0.277-0.471,0.365-0.721,0.199
		c-0.009-0.009-4.365-2.951-8.905-1.035c-4.785,2.018-7.094,2.854-7.104,2.854c-0.277,0.097-0.573-0.079-0.656-0.388
		c-0.083-0.305,0.069-0.633,0.351-0.73c0.005-0.005,2.263-0.822,7.039-2.836c5.016-2.111,9.801,1.118,9.815,1.132V246.993z"/>
	<path style="fill:#DFE1E3;" d="M247.294,250.148c0.249,0.157,0.337,0.517,0.194,0.799c-0.143,0.277-0.466,0.374-0.716,0.217
		c-0.014-0.009-4.434-2.961-9.044-1.039c-4.859,2.018-7.187,2.854-7.196,2.854c-0.277,0.092-0.573-0.079-0.656-0.388
		c-0.083-0.309,0.074-0.637,0.351-0.73c0.005,0,2.309-0.827,7.136-2.836C242.439,246.915,247.28,250.143,247.294,250.148z"/>
	<path style="fill:#DFE1E3;" d="M239.363,252.48c0.286,0.046,0.485,0.346,0.443,0.665c-0.042,0.319-0.314,0.54-0.596,0.494
		c-1.852-0.314-4.282,0.776-6.245,1.658c-1.021,0.457-1.917,0.864-2.61,1.012c-0.286,0.065-0.559-0.143-0.619-0.462
		c-0.055-0.314,0.129-0.624,0.411-0.688c0.6-0.134,1.455-0.517,2.42-0.951C234.652,253.275,237.229,252.116,239.363,252.48z"/>
	<path style="fill:#DFE1E3;" d="M253.561,241.677c-0.249,0.166-0.573,0.074-0.721-0.199c-0.148-0.277-0.069-0.637,0.18-0.804
		c0.014-0.009,4.711-3.247,9.644-1.127c4.674,2.005,6.896,2.831,6.905,2.831c0.277,0.092,0.434,0.42,0.346,0.73
		c-0.083,0.309-0.379,0.48-0.656,0.383c-0.005,0-2.268-0.836-6.974-2.859c-4.448-1.908-8.716,1.035-8.725,1.039V241.677z"/>
	<path style="fill:#DFE1E3;" d="M253.561,244.836c-0.249,0.166-0.573,0.074-0.721-0.199c-0.148-0.277-0.069-0.637,0.18-0.804
		c0.014-0.009,4.711-3.247,9.644-1.127c4.674,2.009,6.896,2.831,6.905,2.831c0.277,0.097,0.434,0.425,0.346,0.73
		c-0.083,0.309-0.379,0.48-0.656,0.388c-0.005,0-2.268-0.836-6.974-2.859C257.838,241.89,253.571,244.832,253.561,244.836z"/>
	<path style="fill:#DFE1E3;" d="M253.561,247.996c-0.249,0.166-0.573,0.079-0.721-0.199s-0.069-0.637,0.18-0.799
		c0.014-0.009,4.822-3.242,9.866-1.132c4.803,2.009,7.076,2.831,7.085,2.836c0.273,0.092,0.43,0.42,0.346,0.73
		c-0.083,0.309-0.379,0.485-0.656,0.388c-0.005-0.005-2.328-0.841-7.145-2.854c-4.568-1.912-8.947,1.03-8.96,1.035L253.561,247.996z
		"/>
	<path style="fill:#DFE1E3;" d="M253.552,251.16c-0.249,0.157-0.573,0.065-0.716-0.217c-0.143-0.282-0.06-0.637,0.194-0.799
		c0.014-0.009,4.937-3.178,10.097-1.007c4.924,2.069,7.251,2.924,7.261,2.924c0.277,0.092,0.43,0.42,0.346,0.73
		c-0.083,0.309-0.379,0.48-0.656,0.388c-0.005-0.005-2.388-0.868-7.321-2.947c-4.697-1.977-9.191,0.915-9.205,0.924V251.16z"/>
	<path style="fill:#DFE1E3;" d="M254.102,254.522c-0.263,0.134-0.577,0.005-0.697-0.291c-0.12-0.296,0-0.642,0.263-0.771
		c5.727-2.887,10.078-0.647,10.873-0.24l0.102,0.051c0.263,0.129,0.383,0.48,0.263,0.771c-0.12,0.296-0.43,0.425-0.693,0.296
		l-0.106-0.051h-0.005c-0.716-0.37-4.702-2.429-10,0.24V254.522z"/>
</g>
<path style="fill:#ECF0F1;" d="M249.067,236.209l1.012,0.651l1.021-0.656l0.009,25.597l-1.03,0.656l-1.002-0.642L249.067,236.209z"
	/>
<path style="fill:#EC4B53;" d="M425.329,347.17h36.003l-0.651-5.783h-34.719l-0.628,5.783H425.329z"/>
<g>
	<path style="fill:#FFFFFF;" d="M443.328,326.27v18.706c-9.921-6.582-13.159,1.626-17.999,2.189l2.129-18.882
		C432.386,328.432,436.257,321.499,443.328,326.27z"/>
	<path style="fill:#FFFFFF;" d="M443.328,326.27v18.706c9.921-6.582,13.154,1.626,17.999,2.189l-2.129-18.882
		C454.27,328.432,450.399,321.499,443.328,326.27z"/>
</g>
<g>
	<path style="fill:#DFE1E3;" d="M441.296,329.06c0.18,0.12,0.24,0.383,0.129,0.587c-0.106,0.199-0.342,0.268-0.527,0.143
		c-0.009-0.005-3.127-2.152-6.374-0.757c-3.436,1.478-5.09,2.088-5.099,2.088c-0.199,0.069-0.416-0.055-0.476-0.282
		c-0.065-0.222,0.051-0.466,0.254-0.536c0.005,0,1.63-0.6,5.044-2.069c3.607-1.547,7.039,0.818,7.048,0.822V329.06z"/>
	<path style="fill:#DFE1E3;" d="M441.296,331.369c0.18,0.12,0.24,0.383,0.129,0.587c-0.106,0.203-0.342,0.268-0.527,0.148
		c-0.009-0.005-3.127-2.157-6.374-0.757c-3.436,1.478-5.09,2.088-5.099,2.088c-0.199,0.069-0.416-0.06-0.476-0.286
		c-0.065-0.222,0.051-0.462,0.254-0.531c0.005-0.005,1.63-0.6,5.044-2.069c3.607-1.547,7.039,0.818,7.048,0.827V331.369z"/>
	<path style="fill:#DFE1E3;" d="M441.296,333.674c0.18,0.12,0.24,0.383,0.129,0.587c-0.106,0.203-0.342,0.268-0.527,0.143
		c-0.009-0.005-3.187-2.152-6.508-0.757c-3.496,1.473-5.187,2.083-5.187,2.088c-0.203,0.069-0.42-0.055-0.48-0.282
		c-0.06-0.226,0.051-0.466,0.254-0.536c0.005,0,1.654-0.6,5.145-2.069c3.667-1.547,7.159,0.818,7.173,0.822V333.674z"/>
	<path style="fill:#DFE1E3;" d="M441.291,335.983c0.18,0.115,0.245,0.379,0.143,0.582c-0.106,0.203-0.342,0.273-0.527,0.157
		c-0.009-0.005-3.238-2.162-6.605-0.757c-3.552,1.478-5.252,2.083-5.256,2.088c-0.203,0.069-0.42-0.06-0.48-0.282
		c-0.065-0.226,0.051-0.466,0.254-0.536c0.005,0,1.686-0.605,5.219-2.074c3.714-1.543,7.247,0.818,7.256,0.822H441.291z"/>
	<path style="fill:#DFE1E3;" d="M435.495,337.683c0.212,0.037,0.356,0.254,0.323,0.485c-0.032,0.236-0.226,0.393-0.439,0.36
		c-1.353-0.231-3.132,0.568-4.563,1.21c-0.744,0.333-1.404,0.628-1.903,0.744c-0.208,0.046-0.411-0.106-0.453-0.337
		c-0.042-0.231,0.097-0.457,0.305-0.503c0.439-0.097,1.062-0.379,1.769-0.693C432.054,338.265,433.938,337.42,435.495,337.683z"/>
	<path style="fill:#DFE1E3;" d="M445.873,329.789c-0.185,0.12-0.42,0.055-0.527-0.143c-0.106-0.203-0.051-0.466,0.134-0.587
		c0.009-0.005,3.441-2.369,7.048-0.822c3.413,1.464,5.039,2.069,5.044,2.069c0.203,0.069,0.314,0.309,0.254,0.536
		c-0.065,0.226-0.277,0.351-0.48,0.282c-0.005,0-1.658-0.614-5.099-2.088c-3.247-1.395-6.365,0.753-6.374,0.757V329.789z"/>
	<path style="fill:#DFE1E3;" d="M445.873,332.099c-0.185,0.12-0.42,0.055-0.527-0.148c-0.106-0.203-0.051-0.467,0.134-0.587
		c0.009-0.009,3.441-2.369,7.048-0.827c3.413,1.469,5.039,2.069,5.044,2.069c0.203,0.069,0.314,0.309,0.254,0.531
		c-0.065,0.226-0.277,0.351-0.48,0.286c-0.005,0-1.658-0.614-5.099-2.088c-3.247-1.395-6.365,0.753-6.374,0.757V332.099z"/>
	<path style="fill:#DFE1E3;" d="M445.873,334.408c-0.185,0.12-0.42,0.055-0.527-0.143c-0.106-0.203-0.051-0.466,0.134-0.587
		c0.009-0.009,3.524-2.369,7.21-0.822c3.51,1.469,5.168,2.069,5.173,2.069c0.203,0.069,0.314,0.309,0.254,0.536
		c-0.065,0.226-0.277,0.351-0.48,0.282c-0.005-0.005-1.7-0.614-5.219-2.088c-3.335-1.4-6.536,0.753-6.545,0.757V334.408z"/>
	<path style="fill:#DFE1E3;" d="M445.868,336.718c-0.185,0.12-0.42,0.046-0.527-0.157c-0.102-0.203-0.042-0.466,0.143-0.582
		c0.009-0.005,3.607-2.323,7.381-0.739c3.598,1.515,5.302,2.134,5.307,2.138c0.203,0.069,0.314,0.309,0.254,0.536
		c-0.06,0.226-0.277,0.351-0.476,0.282c-0.005,0-1.746-0.637-5.353-2.152c-3.432-1.446-6.716,0.67-6.725,0.674H445.868z"/>
	<path style="fill:#DFE1E3;" d="M446.266,339.179c-0.194,0.097-0.42,0-0.508-0.212c-0.088-0.212-0.005-0.471,0.189-0.564
		c4.189-2.111,7.367-0.476,7.944-0.176l0.074,0.037c0.194,0.097,0.277,0.351,0.194,0.564c-0.088,0.212-0.314,0.309-0.508,0.212
		l-0.079-0.037v-0.005c-0.522-0.268-3.436-1.778-7.312,0.176L446.266,339.179z"/>
</g>
<path style="fill:#ECF0F1;" d="M442.589,325.794l0.739,0.476l0.744-0.48l0.005,18.706l-0.753,0.48l-0.734-0.467l-0.009-18.715
	H442.589z"/>
<path style="fill:#20D0C2;" d="M48.742,361.881h56.252v4.494H48.742V361.881z"/>
<path style="fill:#FBB429;" d="M48.742,376.361h56.252v4.494H48.742V376.361z"/>
<path style="fill:#FF5B61;" d="M48.742,390.836h56.252v4.494H48.742V390.836z"/>
<path style="fill:#20D0C2;" d="M43.25,361.881h-5.487v4.494h5.487V361.881z"/>
<path style="fill:#FBB429;" d="M43.25,376.361h-5.487v4.494h5.487V376.361z"/>
<path style="fill:#FF5B61;" d="M43.25,390.836h-5.487v4.494h5.487V390.836z"/>
<path style="fill:#C8CACC;" d="M219.054,383.206h106.841v1.667H219.054V383.206z M219.054,393.025L219.054,393.025h75.11v1.663
	h-75.11V393.025z M219.054,388.115L219.054,388.115h106.841v1.663H219.054V388.115z"/>
<path style="fill:#EC4B53;" d="M138.66,320.256h36.003l-0.651-5.778h-34.719l-0.628,5.778H138.66z"/>
<g>
	<path style="fill:#FFFFFF;" d="M156.659,299.361v18.706c-9.921-6.582-13.154,1.626-17.999,2.189l2.129-18.882
		C145.718,301.523,149.588,294.59,156.659,299.361z"/>
	<path style="fill:#FFFFFF;" d="M156.659,299.361v18.706c9.921-6.582,13.159,1.626,17.999,2.189l-2.129-18.882
		C167.601,301.523,163.731,294.59,156.659,299.361z"/>
</g>
<g>
	<path style="fill:#DFE1E3;" d="M154.627,302.151c0.185,0.12,0.24,0.383,0.134,0.587s-0.346,0.268-0.527,0.148
		c-0.009-0.005-3.127-2.157-6.374-0.757c-3.441,1.478-5.095,2.088-5.095,2.088c-0.203,0.069-0.42-0.055-0.48-0.282
		s0.051-0.466,0.254-0.531c0.005-0.005,1.63-0.605,5.048-2.069c3.603-1.547,7.034,0.818,7.044,0.827L154.627,302.151z"/>
	<path style="fill:#DFE1E3;" d="M154.627,304.46c0.185,0.12,0.24,0.383,0.134,0.587c-0.106,0.199-0.346,0.268-0.527,0.148
		c-0.009-0.005-3.127-2.157-6.374-0.757c-3.441,1.478-5.095,2.088-5.095,2.088c-0.203,0.069-0.42-0.06-0.48-0.286
		c-0.06-0.222,0.051-0.466,0.254-0.536c0.005,0,1.63-0.6,5.048-2.069c3.603-1.547,7.034,0.818,7.044,0.822L154.627,304.46z"/>
	<path style="fill:#DFE1E3;" d="M154.627,306.765c0.185,0.12,0.24,0.383,0.134,0.587c-0.106,0.203-0.346,0.268-0.527,0.148
		c-0.009-0.005-3.187-2.157-6.508-0.757c-3.496,1.473-5.182,2.088-5.192,2.088c-0.199,0.069-0.416-0.06-0.476-0.286
		c-0.065-0.226,0.051-0.462,0.254-0.536c0.005,0,1.658-0.6,5.141-2.069c3.667-1.543,7.164,0.818,7.173,0.822V306.765z"/>
	<path style="fill:#DFE1E3;" d="M154.623,309.07c0.185,0.115,0.249,0.379,0.143,0.582s-0.337,0.272-0.522,0.157
		c-0.009-0.005-3.242-2.162-6.609-0.757c-3.552,1.478-5.252,2.083-5.256,2.083c-0.203,0.069-0.416-0.055-0.48-0.282
		c-0.06-0.226,0.051-0.466,0.254-0.536c0.005,0,1.686-0.605,5.215-2.069C151.08,306.705,154.613,309.06,154.623,309.07z"/>
	<path style="fill:#DFE1E3;" d="M148.831,310.774c0.208,0.032,0.356,0.249,0.323,0.485c-0.032,0.236-0.226,0.393-0.434,0.36
		c-1.353-0.231-3.132,0.568-4.563,1.21c-0.744,0.333-1.399,0.628-1.903,0.744c-0.208,0.046-0.411-0.102-0.453-0.333
		c-0.042-0.236,0.092-0.457,0.3-0.503c0.439-0.097,1.062-0.379,1.769-0.693c1.524-0.684,3.404-1.529,4.965-1.261L148.831,310.774z"
		/>
	<path style="fill:#DFE1E3;" d="M159.204,302.881c-0.18,0.12-0.416,0.055-0.527-0.148c-0.106-0.203-0.046-0.466,0.134-0.587
		c0.009-0.009,3.441-2.374,7.044-0.827c3.418,1.469,5.044,2.069,5.044,2.069c0.203,0.069,0.319,0.309,0.254,0.531
		c-0.065,0.226-0.277,0.351-0.48,0.282c-0.005,0-1.658-0.614-5.094-2.088c-3.252-1.395-6.369,0.753-6.379,0.757L159.204,302.881z"/>
	<path style="fill:#DFE1E3;" d="M159.204,305.19c-0.18,0.12-0.416,0.055-0.527-0.148c-0.106-0.203-0.046-0.466,0.134-0.587
		c0.009-0.005,3.441-2.369,7.044-0.822c3.418,1.469,5.044,2.069,5.044,2.069c0.203,0.069,0.319,0.309,0.254,0.536
		c-0.065,0.226-0.277,0.351-0.48,0.286c-0.005-0.005-1.658-0.614-5.094-2.088c-3.252-1.395-6.369,0.753-6.379,0.757L159.204,305.19z
		"/>
	<path style="fill:#DFE1E3;" d="M159.204,307.499c-0.18,0.12-0.416,0.055-0.527-0.148c-0.106-0.203-0.046-0.466,0.134-0.587
		c0.009-0.005,3.524-2.369,7.215-0.822c3.51,1.469,5.168,2.069,5.173,2.069c0.203,0.069,0.314,0.309,0.254,0.536
		c-0.065,0.226-0.277,0.351-0.48,0.286c-0.005,0-1.704-0.614-5.219-2.088c-3.339-1.399-6.54,0.753-6.549,0.757V307.499z"/>
	<path style="fill:#DFE1E3;" d="M159.2,309.809c-0.18,0.12-0.416,0.046-0.522-0.157s-0.042-0.466,0.143-0.582
		c0.009-0.009,3.607-2.323,7.381-0.734c3.598,1.515,5.298,2.134,5.302,2.134c0.203,0.069,0.314,0.309,0.254,0.531
		c-0.065,0.226-0.277,0.351-0.48,0.286c-0.005,0-1.741-0.637-5.349-2.152c-3.432-1.446-6.716,0.67-6.725,0.674H159.2z"/>
	<path style="fill:#DFE1E3;" d="M159.597,312.266c-0.194,0.097-0.42,0-0.508-0.212s0-0.471,0.194-0.564
		c4.185-2.111,7.362-0.471,7.944-0.176l0.074,0.037c0.194,0.097,0.277,0.351,0.194,0.568c-0.088,0.212-0.314,0.309-0.508,0.212
		l-0.074-0.037l0,0l-0.005-0.005c-0.522-0.268-3.432-1.774-7.307,0.176H159.597z"/>
</g>
<path style="fill:#ECF0F1;" d="M155.92,298.885l0.739,0.476l0.748-0.48l0.005,18.706l-0.753,0.48l-0.734-0.466l-0.005-18.711
	V298.885z"/>
<g>
</g>
<g>
</g>
<g>
</g>
<g>
</g>
<g>
</g>
<g>
</g>
<g>
</g>
<g>
</g>
<g>
</g>
<g>
</g>
<g>
</g>
<g>
</g>
<g>
</g>
<g>
</g>
<g>
</g>
</svg>
