<?xml version="1.0" encoding="iso-8859-1"?>
<!-- Generator: Adobe Illustrator 19.0.0, SVG Export Plug-In . SVG Version: 6.00 Build 0)  -->
<svg version="1.1" id="Layer_1" xmlns="http://www.w3.org/2000/svg" xmlns:xlink="http://www.w3.org/1999/xlink" x="0px" y="0px"
	 viewBox="0 0 512 512" style="enable-background:new 0 0 512 512;" xml:space="preserve">
<path style="fill:#1A91A1;" d="M256,0c141.385,0,256,114.615,256,256S397.385,512,256,512S0,397.385,0,256S114.615,0,256,0z"/>
<path style="fill:#807D7D;" d="M303.781,93.036c11.519,20.54,26.299,40.229,44.248,58.173
	c17.949,17.949,37.638,32.729,58.173,44.248c7.094,2.309,10.226-6.351,4.739-10.134c-19.408-10.951-38.031-24.978-55.037-41.985
	c-17.006-17.006-31.034-35.634-41.985-55.042c-4.577-5.94-13.224-2.111-10.134,4.739H303.781z"/>
<path style="fill:#FFFFFF;" d="M303.111,301.472l-23.389,28.992l16.226-34.105L303.111,301.472z"/>
<path style="fill:#20D0C2;" d="M444.293,108.43l-23.473-23.473L298.382,282.941l-2.434,13.418l7.159,5.113l9.967-7.201
	L444.293,108.43z M395.302,59.439L395.302,59.439l23.473,23.473L217.886,207.424l-13.385-11.99l190.801-136V59.439z"/>
<path style="fill:#FF5B61;" d="M471.928,83.221l-25.759-25.653l-25.653-25.759c-1.764-1.769-4.337-1.52-6.295-0.125L380.554,55.61
	c-1.958,1.395-1.635,4.531,0.125,6.295l30.576,30.576l30.576,30.576c1.764,1.764,4.905,2.083,6.295,0.129l23.925-33.666
	c1.39-1.958,1.644-4.531-0.125-6.295V83.221z"/>
<path style="fill:#EC4B53;" d="M436.432,67.305c-5.108-5.104-13.224-5.27-18.129-0.365c-4.905,4.905-4.743,13.025,0.365,18.129
	c5.104,5.108,13.224,5.27,18.129,0.365c4.905-4.905,4.743-13.025-0.365-18.133V67.305z"/>
<path style="fill:#FFFFFF;" d="M433.656,70.081c-3.51-3.51-9.09-3.621-12.466-0.249c-3.372,3.372-3.261,8.951,0.249,12.461
	c3.51,3.51,9.09,3.621,12.466,0.249C437.278,79.17,437.167,73.591,433.656,70.081z"/>
<path style="fill:#ECF0F1;" d="M433.656,70.081c-0.273-0.273-0.554-0.522-0.845-0.753l-12.12,12.12
	c0.231,0.296,0.48,0.577,0.753,0.85c0.273,0.273,0.554,0.522,0.845,0.753l12.12-12.12C434.178,70.635,433.929,70.353,433.656,70.081
	z"/>
<g>
	<path style="fill:#FF5B61;" d="M475.553,39.865l-8.623-8.623c-1.811-1.811-4.309-1.774-6.074-0.503l-24.161,17.334l22.032,22.032
		l17.334-24.161c1.27-1.769,1.307-4.263-0.503-6.074L475.553,39.865z"/>
	<path style="fill:#FF5B61;" d="M235.068,171.421l-10.064-14.272l-48.756,33.366c4.115-0.67,2.919,4.138,2.919,4.138
		c2.78-0.217,3.847,1.815,3.847,1.815s1.561,1.69,0.383,4.185c0,0,4.988,0.573,2.914,4.138l48.76-33.366L235.068,171.421z"/>
</g>
<path style="fill:#FFFFFF;" d="M235.068,171.421l-10.064-14.272l5.944-4.065l10.06,14.272L235.068,171.421z"/>
<path style="fill:#20D0C2;" d="M245.996,157.837l-4.254-6.032c-1.598-2.268-3.011-4.051-4.536-3.002l-6.258,4.282l10.06,14.272
	l6.258-4.282C248.799,162.026,247.594,160.105,245.996,157.837z"/>
<path style="fill:#FED198;" d="M172.645,207.009l-3.284-4.656l6.882-11.838c4.115-0.67,2.919,4.138,2.919,4.138
	c2.781-0.217,3.847,1.815,3.847,1.815s1.561,1.69,0.383,4.185c0,0,4.988,0.573,2.914,4.138l-13.662,2.222V207.009z"/>
<path style="fill:#807D7D;" d="M172.645,207.009l-1.644-2.328l-9.432,6.452l11.076-4.129V207.009z"/>
<path style="fill:#666666;" d="M169.366,202.358l1.64,2.328l-9.432,6.452L169.366,202.358z"/>
<g>
	<path style="fill:#EC4B53;" d="M235.068,171.421l-2.919-4.138l-48.756,33.366c0,0,4.988,0.573,2.914,4.138L235.068,171.421z"/>
	<path style="fill:#EC4B53;" d="M227.918,161.287l-2.919-4.138l-48.756,33.366c4.115-0.67,2.919,4.138,2.919,4.138L227.918,161.287z
		"/>
</g>
<g>
	<path style="fill:#15BDB1;" d="M245.982,157.819l-7.893,5.399l2.914,4.138l6.258-4.282c1.529-1.048,0.767-2.351-0.296-3.857
		l-0.988-1.399H245.982z"/>
	<path style="fill:#15BDB1;" d="M237.202,148.803l-6.263,4.282l2.919,4.138l7.893-5.404l-0.988-1.399
		C239.705,148.914,238.73,147.754,237.202,148.803z"/>
</g>
<g>
	<path style="fill:#F0B97D;" d="M183.393,200.653l-12.388,4.032l1.644,2.328l13.662-2.217c2.074-3.566-2.914-4.138-2.914-4.138
		L183.393,200.653z"/>
	<path style="fill:#F0B97D;" d="M179.162,194.658l-8.157,10.027l-1.64-2.328l6.882-11.838c4.115-0.67,2.919,4.138,2.919,4.138
		H179.162z"/>
</g>
<path style="fill:#FBB429;" d="M366.435,132.522L366.435,132.522c-2.67-2.674-7.039-2.674-9.709,0l-20.073,20.073
	c-2.67,2.67-2.67,7.039,0,9.709l0,0c2.67,2.674,7.044,2.67,9.713,0l20.069-20.069C369.109,139.561,369.109,135.196,366.435,132.522z
	"/>
<path style="fill:#FFFFFF;" d="M225.336,201.369l-13.33-13.33c-0.647-0.647-1.704-0.647-2.351,0l-2.12,2.12
	c-0.647,0.647-0.647,1.704,0,2.356l13.325,13.33c0.647,0.647,1.709,0.647,2.356,0l2.12-2.12c0.647-0.647,0.647-1.704,0-2.351
	V201.369z"/>
<path style="fill:#F5A209;" d="M365.215,138.452l-4.711-4.711c-0.753-0.753-1.848-0.891-2.439-0.305
	c-0.587,0.591-0.453,1.686,0.305,2.439l4.711,4.711c0.753,0.753,1.848,0.887,2.439,0.305
	C366.107,140.304,365.968,139.205,365.215,138.452z M344.717,158.955L344.717,158.955l-4.711-4.711
	c-0.753-0.753-1.852-0.887-2.439-0.305c-0.587,0.587-0.453,1.686,0.3,2.439l4.711,4.711c0.753,0.753,1.852,0.891,2.439,0.305
	C345.604,160.807,345.466,159.708,344.717,158.955z M349.84,153.828L349.84,153.828c0.753,0.753,0.887,1.848,0.305,2.439
	c-0.587,0.587-1.686,0.453-2.439-0.305l-4.711-4.711c-0.753-0.753-0.891-1.848-0.3-2.439c0.587-0.587,1.686-0.453,2.439,0.305
	l4.711,4.711H349.84z M354.966,148.701L354.966,148.701l-4.711-4.711c-0.753-0.753-1.852-0.891-2.439-0.305
	c-0.587,0.587-0.453,1.686,0.3,2.439l4.711,4.711c0.753,0.753,1.848,0.891,2.439,0.305c0.587-0.587,0.448-1.686-0.305-2.439H354.966
	z M360.093,143.574L360.093,143.574c0.753,0.753,0.887,1.848,0.305,2.439c-0.587,0.587-1.686,0.453-2.439-0.305l-4.711-4.711
	c-0.753-0.753-0.891-1.848-0.3-2.439c0.587-0.587,1.686-0.453,2.439,0.305l4.711,4.711H360.093z"/>
<path style="fill:#FFFFFF;" d="M213.54,185.3l-10.05-13.459c-1.15-1.543-3.362-1.875-4.919-0.744l-2.984,2.175
	c-1.557,1.136-1.884,3.321-0.734,4.864l10.05,13.459c1.155,1.543,3.367,1.875,4.924,0.744l2.984-2.175
	c1.557-1.132,1.884-3.321,0.734-4.859L213.54,185.3z"/>
<g>
	<path style="fill:#EC4B53;" d="M468.168,38.622c-0.554-0.55-1.455-0.55-2.009,0l-17.103,17.103c-0.554,0.554-0.554,1.455,0,2.009
		l0,0c0.554,0.554,1.455,0.554,2.009,0l17.103-17.103C468.722,40.077,468.722,39.176,468.168,38.622z"/>
	<path style="fill:#EC4B53;" d="M472.195,42.673L472.195,42.673c-0.628-0.471-1.547-0.356-2.046,0.249l-15.325,18.618
		c-0.499,0.605-0.393,1.483,0.236,1.949l0.005,0.005c0.628,0.466,1.547,0.356,2.046-0.249l15.325-18.618
		c0.499-0.605,0.393-1.483-0.236-1.954H472.195z"/>
	<path style="fill:#EC4B53;" d="M464.117,34.595c0.471,0.628,0.356,1.547-0.249,2.046L445.25,51.966
		c-0.61,0.499-1.483,0.393-1.954-0.236l0,0c-0.466-0.633-0.356-1.552,0.249-2.051l18.618-15.325
		c0.605-0.499,1.483-0.393,1.954,0.236V34.595z"/>
</g>
<path style="fill:#FBB429;" d="M73.323,135.699l249.783,249.783H73.323V135.699z M115.405,237.289L115.405,237.289v106.112h106.112
	L115.405,237.289z"/>
<path style="fill:#F5A209;" d="M73.323,135.699l3.672,3.672v242.55h242.55l3.561,3.561H73.323V135.699z"/>
<g>
	<path style="fill:#FFFFFF;" d="M77.886,364.384h3.039v16.909h-3.039V364.384z M300.308,373.437L300.308,373.437h3.044v7.857h-3.044
		V373.437z M292.073,364.384L292.073,364.384h3.039v16.909h-3.039V364.384z M283.833,373.437L283.833,373.437h3.039v7.857h-3.039
		V373.437z M275.593,364.384L275.593,364.384h3.039v16.909h-3.039V364.384z M267.358,373.437L267.358,373.437h3.039v7.857h-3.039
		V373.437z M259.118,364.384L259.118,364.384h3.039v16.909h-3.039V364.384z M250.878,373.437L250.878,373.437h3.039v7.857h-3.039
		V373.437z M242.643,364.384L242.643,364.384h3.039v16.909h-3.039V364.384z M234.403,373.437L234.403,373.437h3.039v7.857h-3.039
		V373.437z M226.163,364.384L226.163,364.384h3.039v16.909h-3.039V364.384z M217.923,373.437L217.923,373.437h3.039v7.857h-3.039
		V373.437z M209.688,364.384L209.688,364.384h3.039v16.909h-3.039V364.384z M201.448,373.437L201.448,373.437h3.039v7.857h-3.039
		V373.437z M193.208,364.384L193.208,364.384h3.039v16.909h-3.039V364.384z M184.973,373.437L184.973,373.437h3.039v7.857h-3.039
		V373.437z M176.733,364.384L176.733,364.384h3.039v16.909h-3.039V364.384z M168.497,373.437L168.497,373.437h3.039v7.857h-3.039
		V373.437z M160.257,364.384L160.257,364.384h3.039v16.909h-3.039V364.384z M152.018,373.437L152.018,373.437h3.039v7.857h-3.039
		V373.437z M143.782,364.384L143.782,364.384h3.039v16.909h-3.039V364.384z M135.542,373.437L135.542,373.437h3.039v7.857h-3.039
		V373.437z M127.307,364.384L127.307,364.384h3.039v16.909h-3.039V364.384z M119.067,373.437L119.067,373.437h3.039v7.857h-3.039
		V373.437z M110.827,364.384L110.827,364.384h3.039v16.909h-3.039V364.384z M102.592,373.437L102.592,373.437h3.039v7.857h-3.039
		V373.437z M94.352,364.384L94.352,364.384h3.039v16.909h-3.039V364.384z M86.112,373.437L86.112,373.437h3.039v7.857h-3.039
		V373.437z"/>
	<path style="fill:#FFFFFF;" d="M85.743,171.518v-3.039h-7.857v3.039H85.743z M94.796,179.758L94.796,179.758v-3.039H77.886v3.039
		H94.796z M85.743,187.993L85.743,187.993v-3.039h-7.857v3.039H85.743z M94.796,196.233L94.796,196.233v-3.039H77.886v3.039H94.796z
		 M85.743,204.473L85.743,204.473v-3.039h-7.857v3.039H85.743z M94.796,212.708L94.796,212.708v-3.039H77.886v3.039H94.796z
		 M85.743,220.948L85.743,220.948v-3.039h-7.857v3.039H85.743z M94.796,229.183L94.796,229.183v-3.039H77.886v3.039H94.796z
		 M85.743,237.423L85.743,237.423v-3.039h-7.857v3.039H85.743z M94.796,245.663L94.796,245.663v-3.039H77.886v3.039H94.796z
		 M85.743,253.898L85.743,253.898v-3.039h-7.857v3.039H85.743z M94.796,262.138L94.796,262.138v-3.044H77.886v3.044H94.796z
		 M85.743,270.374L85.743,270.374v-3.039h-7.857v3.039H85.743z M94.796,278.613L94.796,278.613v-3.039H77.886v3.039H94.796z
		 M85.743,286.853L85.743,286.853v-3.044h-7.857v3.044H85.743z M94.796,295.089L94.796,295.089v-3.039H77.886v3.039H94.796z
		 M85.743,303.329L85.743,303.329v-3.039h-7.857v3.039H85.743z M94.796,311.564L94.796,311.564v-3.039H77.886v3.039H94.796z
		 M85.743,319.804L85.743,319.804v-3.039h-7.857v3.039H85.743z M94.796,328.044L94.796,328.044v-3.039H77.886v3.039H94.796z
		 M85.743,336.279L85.743,336.279v-3.039h-7.857v3.039H85.743z M94.796,344.519L94.796,344.519v-3.039H77.886v3.039H94.796z
		 M85.743,352.754L85.743,352.754v-3.039h-7.857v3.039H85.743z M94.796,360.994L94.796,360.994v-3.039H77.886v3.039H94.796z"/>
</g>
<path style="fill:#FBB429;" d="M29.574,414.433h452.847v58.631H29.574V414.433z"/>
<path style="fill:#FFFFFF;" d="M36.156,435.047h3.039v-16.914h-3.039V435.047z M266.854,435.047L266.854,435.047h3.039v-16.914
	h-3.039V435.047z M472.8,425.994L472.8,425.994h3.039v-7.857H472.8V425.994z M464.561,435.047L464.561,435.047h3.039v-16.914h-3.039
	V435.047z M456.325,425.994L456.325,425.994h3.039v-7.857h-3.039V425.994z M448.085,435.047L448.085,435.047h3.039v-16.914h-3.039
	V435.047z M439.846,425.994L439.846,425.994h3.039v-7.857h-3.039V425.994z M431.61,435.047L431.61,435.047h3.039v-16.914h-3.039
	V435.047z M423.37,425.994L423.37,425.994h3.039v-7.857h-3.039V425.994z M415.131,435.047L415.131,435.047h3.039v-16.914h-3.039
	V435.047z M406.891,425.994L406.891,425.994h3.039v-7.857h-3.039V425.994z M398.651,435.047L398.651,435.047h3.039v-16.914h-3.039
	V435.047z M390.415,425.994L390.415,425.994h3.039v-7.857h-3.039V425.994z M382.176,435.047L382.176,435.047h3.039v-16.914h-3.039
	V435.047z M373.94,425.994L373.94,425.994h3.039v-7.857h-3.039V425.994z M365.7,435.047L365.7,435.047h3.039v-16.914H365.7V435.047z
	 M357.461,425.994L357.461,425.994h3.039v-7.857h-3.039V425.994z M349.225,435.047L349.225,435.047h3.039v-16.914h-3.039V435.047z
	 M340.985,425.994L340.985,425.994h3.039v-7.857h-3.039V425.994z M332.75,435.047L332.75,435.047h3.039v-16.914h-3.039V435.047z
	 M324.51,425.994L324.51,425.994h3.039v-7.857h-3.039V425.994z M316.275,435.047L316.275,435.047h3.039v-16.914h-3.039V435.047z
	 M308.035,425.994L308.035,425.994h3.039v-7.857h-3.039V425.994z M299.795,435.047L299.795,435.047h3.039v-16.914h-3.039V435.047z
	 M291.56,425.994L291.56,425.994h3.039v-7.857h-3.039V425.994z M283.32,435.047L283.32,435.047h3.039v-16.914h-3.039V435.047z
	 M275.08,425.994L275.08,425.994h3.039v-7.857h-3.039V425.994z M258.568,425.994L258.568,425.994h3.044v-7.857h-3.044V425.994z
	 M250.333,435.047L250.333,435.047h3.039v-16.914h-3.039V435.047z M242.093,425.994L242.093,425.994h3.039v-7.857h-3.039V425.994z
	 M233.853,435.047L233.853,435.047h3.039v-16.914h-3.039V435.047z M225.618,425.994L225.618,425.994h3.039v-7.857h-3.039V425.994z
	 M217.378,435.047L217.378,435.047h3.039v-16.914h-3.039V435.047z M209.138,425.994L209.138,425.994h3.039v-7.857h-3.039V425.994z
	 M200.903,435.047L200.903,435.047h3.039v-16.914h-3.039V435.047z M192.663,425.994L192.663,425.994h3.039v-7.857h-3.039V425.994z
	 M184.423,435.047L184.423,435.047h3.039v-16.914h-3.039V435.047z M176.183,425.994L176.183,425.994h3.039v-7.857h-3.039V425.994z
	 M167.943,435.047L167.943,435.047h3.039v-16.914h-3.039V435.047z M159.708,425.994L159.708,425.994h3.039v-7.857h-3.039V425.994z
	 M151.468,435.047L151.468,435.047h3.039v-16.914h-3.039V435.047z M143.233,425.994L143.233,425.994h3.039v-7.857h-3.039V425.994z
	 M134.993,435.047L134.993,435.047h3.039v-16.914h-3.039V435.047z M126.753,425.994L126.753,425.994h3.039v-7.857h-3.039V425.994z
	 M118.518,435.047L118.518,435.047h3.039v-16.914h-3.039V435.047z M110.278,425.994L110.278,425.994h3.039v-7.857h-3.039V425.994z
	 M102.043,435.047L102.043,435.047h3.039v-16.914h-3.039V435.047z M93.803,425.994L93.803,425.994h3.039v-7.857h-3.039V425.994z
	 M85.567,435.047L85.567,435.047h3.039v-16.914h-3.039V435.047z M77.327,425.994L77.327,425.994h3.039v-7.857h-3.039V425.994z
	 M69.088,435.047L69.088,435.047h3.039v-16.914h-3.039V435.047z M60.852,425.994L60.852,425.994h3.039v-7.857h-3.039V425.994z
	 M52.612,435.047L52.612,435.047h3.039v-16.914h-3.039V435.047z M44.373,425.994L44.373,425.994h3.039v-7.857h-3.039V425.994z"/>
<path style="fill:#F5A209;" d="M29.574,414.433h452.847v3.483H29.574V414.433z"/>
<g>
</g>
<g>
</g>
<g>
</g>
<g>
</g>
<g>
</g>
<g>
</g>
<g>
</g>
<g>
</g>
<g>
</g>
<g>
</g>
<g>
</g>
<g>
</g>
<g>
</g>
<g>
</g>
<g>
</g>
</svg>
