<?xml version="1.0" encoding="iso-8859-1"?>
<!-- Generator: Adobe Illustrator 19.0.0, SVG Export Plug-In . SVG Version: 6.00 Build 0)  -->
<svg version="1.1" id="Layer_1" xmlns="http://www.w3.org/2000/svg" xmlns:xlink="http://www.w3.org/1999/xlink" x="0px" y="0px"
	 viewBox="0 0 512 512" style="enable-background:new 0 0 512 512;" xml:space="preserve">
<path style="fill:#5DDDD3;" d="M256.001,512C397,512,512,397,512,255.999C512,115,397,0,256.001,0C115,0,0,115,0,255.999
	C0,397,115,512,256.001,512z"/>
<path style="fill:#FBB429;" d="M255.999,106.509c106.874,0,193.516,86.643,193.516,193.516H340.199
	c0.176-2.219,0.268-4.47,0.268-6.738c0-46.65-37.816-84.468-84.468-84.468s-84.471,37.818-84.471,84.468
	c0,2.269,0.094,4.519,0.268,6.738H62.477c0-106.874,86.643-193.516,193.519-193.516H255.999z"/>
<path style="fill:#F5A209;" d="M347.226,300.026h-7.027c0.176-2.219,0.268-4.467,0.268-6.736c0-46.653-37.816-84.468-84.468-84.468
	s-84.468,37.818-84.468,84.468c0,2.271,0.092,4.517,0.268,6.736h-7.027c-0.165-2.248-0.252-4.519-0.252-6.812
	c0-50.524,40.955-91.479,91.479-91.479c50.521,0,91.477,40.955,91.477,91.479c0,2.292-0.087,4.564-0.252,6.812H347.226z"/>
<path style="fill:#FFFFFF;" d="M253.452,116.56h5.094v24.979h-5.094V116.56z M276.424,117.657L276.424,117.657l5.049,0.624
	l-1.597,12.394l-5.055-0.627L276.424,117.657z M299.073,121.563L299.073,121.563l4.931,1.238l-6.355,24.194l-4.931-1.235
	L299.073,121.563z M321.044,128.212L321.044,128.212l4.734,1.833l-4.703,11.612l-4.734-1.831l4.706-11.615H321.044z M341.988,137.5
	L341.988,137.5l4.462,2.397l-12.31,21.891l-4.462-2.4L341.988,137.5z M361.577,149.282L361.577,149.282l4.121,2.927l-7.512,10.104
	l-4.121-2.925L361.577,149.282z M379.5,163.373L379.5,163.373l3.714,3.407l-17.493,18.209l-3.714-3.407L379.5,163.373z
	 M395.476,179.549L395.476,179.549l3.245,3.835l-9.844,7.958l-3.245-3.832l9.844-7.963V179.549z M409.252,197.551L409.252,197.551
	l2.728,4.205l-21.577,13.382l-2.725-4.202L409.252,197.551z M420.612,217.102L420.612,217.102l2.169,4.501l-11.562,5.319
	l-2.167-4.501l11.562-5.319H420.612z M429.376,237.89L429.376,237.89l1.571,4.734l-24.302,7.719l-1.574-4.734l24.302-7.719H429.376z
	 M435.406,259.584L435.406,259.584l0.955,4.889l-12.551,2.34l-0.955-4.889l12.554-2.342L435.406,259.584z M438.606,281.848
	L438.606,281.848l0.317,4.968l-25.501,1.569l-0.32-4.968L438.606,281.848z M73.087,286.816L73.087,286.816l0.32-4.968l25.501,1.569
	l-0.32,4.968L73.087,286.816z M75.65,264.474L75.65,264.474l0.955-4.889l12.551,2.342l-0.955,4.889l-12.551-2.34V264.474z
	 M81.061,242.621L81.061,242.621l1.574-4.734l24.302,7.719l-1.571,4.734l-24.302-7.719H81.061z M89.229,221.603L89.229,221.603
	l2.169-4.501l11.56,5.319l-2.169,4.501L89.229,221.603z M100.028,201.755L100.028,201.755l2.731-4.205l21.574,13.385l-2.728,4.202
	L100.028,201.755z M113.287,183.384L113.287,183.384l3.245-3.835l9.844,7.963l-3.245,3.832l-9.844-7.958V183.384z M128.797,166.783
	L128.797,166.783l3.709-3.407l17.493,18.209l-3.712,3.407l-17.493-18.209H128.797z M146.313,152.212L146.313,152.212l4.118-2.927
	l7.512,10.106l-4.121,2.925L146.313,152.212z M165.555,139.902L165.555,139.902l4.462-2.397l12.31,21.889l-4.462,2.4
	L165.555,139.902z M186.227,130.051L186.227,130.051l4.734-1.833l4.703,11.609l-4.734,1.831l-4.706-11.607H186.227z
	 M208.001,122.803L208.001,122.803l4.931-1.238l6.358,24.197l-4.931,1.235l-6.356-24.194H208.001z M230.529,118.284L230.529,118.284
	l5.052-0.624l1.6,12.391l-5.055,0.627L230.529,118.284z"/>
<path style="fill:#FED198;" d="M224.379,107.551c21.162,24.845,42.346,23.743,63.542,0.047l-20.113-48.515l-23.248-0.018
	L224.379,107.551z"/>
<path style="fill:#F0B97D;" d="M256.064,125.778c10.615-0.105,21.233-6.303,31.856-18.18l-20.113-48.515l-11.696-0.01
	L256.064,125.778z"/>
<path style="fill:#EC4B53;" d="M241.743,454.116l0.129-331.454c0.005-8.304-6.408-15.111-14.256-15.111l0,0
	c-1.112,0-2.195,0.136-3.237,0.396l-0.142,346.156L241.743,454.116z"/>
<path style="fill:#FF5B61;" d="M241.743,454.116l0.129-331.454c0.005-8.304,6.429-15.09,14.277-15.09l0,0
	c7.848,0,14.259,6.807,14.256,15.111l-0.129,331.454l-28.536-0.021H241.743z"/>
<path style="fill:#EC4B53;" d="M287.921,107.991c-1.039-0.257-2.122-0.396-3.234-0.399l0,0c-7.848,0-14.277,6.786-14.277,15.09
	l-0.134,331.449l17.506,0.013L287.921,107.991z"/>
<path style="fill:#807D7D;" d="M244.56,59.065l23.242,0.018l-12.016-38.92L244.56,59.065z"/>
<path style="fill:#666666;" d="M256.111,59.072l11.693,0.01L256.14,21.299l-0.026,37.774H256.111z"/>
<path style="fill:#FFFFFF;" d="M223.925,459.362l64.145,0.016l0.008-5.233l-64.143-0.016L223.925,459.362z"/>
<path style="fill:#FF5B61;" d="M223.925,459.346l64.145,0.045l-0.01,13.031c-0.003,7.166-5.87,13.026-13.036,13.018l-38.091-0.026
	c-7.166-0.005-13.021-5.87-13.018-13.039L223.925,459.346z"/>
<path style="fill:#FBB429;" d="M14.891,300.026h482.219v98.346H14.891V300.026z"/>
<path style="fill:#F5A209;" d="M14.891,391.29h482.219v7.079H14.891V391.29z"/>
<path style="fill:#FFFFFF;" d="M22.754,363.413h5.01v27.864h-5.01V363.413z M484.236,363.413L484.236,363.413h5.007v27.864h-5.007
	V363.413z M470.664,378.33L470.664,378.33h5.007v12.944h-5.007V378.33z M457.093,363.413L457.093,363.413h5.007v27.864h-5.007
	V363.413z M443.522,378.33L443.522,378.33h5.007v12.944h-5.007V378.33z M429.948,363.413L429.948,363.413h5.007v27.864h-5.007
	V363.413z M416.376,378.33L416.376,378.33h5.007v12.944h-5.007V378.33z M402.802,363.413L402.802,363.413h5.007v27.864h-5.007
	V363.413z M389.226,378.33L389.226,378.33h5.01v12.944h-5.01V378.33z M375.654,363.413L375.654,363.413h5.007v27.864h-5.007V363.413
	z M362.083,378.33L362.083,378.33h5.007v12.944h-5.007V378.33z M348.506,363.413L348.506,363.413h5.007v27.864h-5.007V363.413z
	 M334.935,378.33L334.935,378.33h5.007v12.944h-5.007V378.33z M321.361,363.413L321.361,363.413h5.007v27.864h-5.007V363.413z
	 M307.787,378.33L307.787,378.33h5.007v12.944h-5.007V378.33z M294.213,363.413L294.213,363.413h5.01v27.864h-5.01V363.413z
	 M280.642,378.33L280.642,378.33h5.007v12.944h-5.007V378.33z M267.065,363.413L267.065,363.413h5.01v27.864h-5.01V363.413z
	 M253.494,378.33L253.494,378.33h5.01v12.944h-5.01V378.33z M239.922,363.413L239.922,363.413h5.007v27.864h-5.007V363.413z
	 M226.348,378.33L226.348,378.33h5.01v12.944h-5.01V378.33z M212.774,363.413L212.774,363.413h5.01v27.864h-5.01V363.413z
	 M199.2,378.33L199.2,378.33h5.01v12.944h-5.01V378.33z M185.629,363.413L185.629,363.413h5.01v27.864h-5.01V363.413z
	 M172.055,378.33L172.055,378.33h5.01v12.944h-5.01V378.33z M158.484,363.413L158.484,363.413h5.01v27.864h-5.01V363.413z
	 M144.912,378.33L144.912,378.33h5.007v12.944h-5.007V378.33z M131.338,363.413L131.338,363.413h5.01v27.864h-5.01V363.413z
	 M117.767,378.33L117.767,378.33h5.01v12.944h-5.01V378.33z M104.193,363.413L104.193,363.413h5.01v27.864h-5.01V363.413z
	 M90.619,378.33L90.619,378.33h5.01v12.944h-5.01V378.33z M77.045,363.413L77.045,363.413h5.01v27.864h-5.01V363.413z
	 M63.474,378.33L63.474,378.33h5.01v12.944h-5.01V378.33z M49.9,363.413L49.9,363.413h5.01v27.864H49.9V363.413z M36.328,378.33
	L36.328,378.33h5.01v12.944h-5.01V378.33z"/>
<g>
</g>
<g>
</g>
<g>
</g>
<g>
</g>
<g>
</g>
<g>
</g>
<g>
</g>
<g>
</g>
<g>
</g>
<g>
</g>
<g>
</g>
<g>
</g>
<g>
</g>
<g>
</g>
<g>
</g>
</svg>
