<?xml version="1.0" encoding="iso-8859-1"?>
<!-- Generator: Adobe Illustrator 19.0.0, SVG Export Plug-In . SVG Version: 6.00 Build 0)  -->
<svg version="1.1" id="Layer_1" xmlns="http://www.w3.org/2000/svg" xmlns:xlink="http://www.w3.org/1999/xlink" x="0px" y="0px"
	 viewBox="0 0 512.003 512.003" style="enable-background:new 0 0 512.003 512.003;" xml:space="preserve">
<path style="fill:#1A91A1;" d="M256.001,0c141.385,0,256,114.615,256,255.997c0,141.385-114.615,256-256,256s-256-114.615-256-256
	S114.616,0,256.001,0z"/>
<path style="fill:#15BDB1;" d="M144.028,172.672h223.947v313.596c-33.826,16.478-71.815,25.734-111.973,25.734
	s-78.15-9.257-111.973-25.734V172.672z"/>
<g>
	<path style="fill:#20D0C2;" d="M100.132,128.622h311.739c26.925,0,48.754,21.829,48.754,48.754s-21.829,48.756-48.754,48.756
		s-48.754-21.829-48.754-48.756H148.888c0,26.925-21.829,48.756-48.756,48.756s-48.754-21.829-48.754-48.756
		C51.378,150.45,73.204,128.622,100.132,128.622z"/>
	<path style="fill:#20D0C2;" d="M154.73,172.672h202.543v317.465C326.211,504.197,291.976,512,256.001,512
		s-70.21-7.803-101.272-21.863V172.672z"/>
</g>
<path style="fill:#15BDB1;" d="M96.415,185.837c-9.278-3.481-8.989-17.792,2.71-21.336c3.274-0.992,7.302-1.049,11.098,0.121
	c6.613,2.043,12.811,7.557,13.731,17.892c0.818,9.246-3.389,16.735-9.933,21.501c-3.407,2.481-7.441,4.189-11.683,4.968
	c-4.252,0.784-8.735,0.666-13.021-0.498c-8.714-2.369-16.672-8.889-20.436-20.716c-4.273-13.425-0.241-25.703,8.097-34.233
	c3.976-4.068,8.923-7.258,14.385-9.27c5.422-1.996,11.413-2.851,17.516-2.274c13.813,1.309,27.985,9.878,37.042,29.06l0.089,0.186
	c1.191,2.523,0.818,3.145,1.293,3.444c0.59,0.37,0.372-0.399,2.237-0.449l1.296-0.031h0.029c0.307-0.005,5.333-0.013,9.731-0.021
	l6.521-0.013h66.816h110.945l6.518,0.013c4.401,0.008,9.424,0.013,9.734,0.021h0.029l1.298,0.031
	c1.862,0.05,1.642,0.818,2.235,0.449c0.475-0.299,0.102-0.921,1.293-3.444l0.089-0.186c9.06-19.182,23.232-27.751,37.042-29.06
	c6.109-0.577,12.097,0.278,17.519,2.274c5.461,2.014,10.408,5.201,14.382,9.27c8.339,8.53,12.373,20.808,8.097,34.233
	c-3.761,11.827-11.72,18.348-20.433,20.716c-4.286,1.165-8.769,1.283-13.021,0.498c-4.239-0.779-8.276-2.487-11.68-4.968
	c-6.544-4.766-10.754-12.252-9.933-21.501c0.918-10.335,7.116-15.848,13.731-17.892c3.796-1.172,7.822-1.112,11.095-0.121
	c11.701,3.544,11.987,17.857,2.712,21.336c-3.94,0.784-7.263-1.747-6.725-5.298c0.37-2.437,2.122-5.301-0.302-6.03
	c-7.389-2.222-12.134,11.237-2.041,17.781c1.629,1.188,3.62,2.014,5.763,2.408c2.127,0.393,4.394,0.328,6.589-0.27
	c4.346-1.18,8.383-4.64,10.416-11.04c2.458-7.725,0.131-14.799-4.682-19.722c-2.437-2.492-5.527-4.47-8.979-5.742
	c-3.491-1.285-7.305-1.839-11.145-1.477c-9.141,0.868-18.731,6.982-25.26,20.808l-0.089,0.186c-2.397,5.078-3.552,7.525-6.757,9.532
	c-3.129,1.959-5.566,1.899-10.261,1.773l-1.296-0.034c-0.519-0.005-5.254-0.013-9.419-0.018l-6.518-0.013v28.347H233.937h-66.816
	v-28.347l-6.521,0.013c-4.163,0.005-8.9,0.013-9.419,0.018l-1.296,0.034c-4.695,0.123-7.135,0.186-10.261-1.773
	c-3.205-2.007-4.359-4.454-6.757-9.532l-0.092-0.186c-6.529-13.826-16.118-19.94-25.257-20.808
	c-3.843-0.362-7.657,0.191-11.145,1.477c-3.454,1.272-6.539,3.25-8.979,5.742c-4.813,4.923-7.142,11.998-4.685,19.722
	c2.038,6.403,6.072,9.863,10.419,11.04c2.193,0.598,4.459,0.664,6.589,0.27c2.143-0.393,4.134-1.222,5.763-2.408
	c10.093-6.544,5.346-20.003-2.038-17.781c-2.426,0.729-0.674,3.594-0.304,6.03C103.678,184.093,100.355,186.622,96.415,185.837z"/>
<path style="fill:#20D0C2;" d="M176.981,185.801h6.148c1.159,0,2.109,0.708,2.109,1.571v19.819c0,0.866-0.947,1.574-2.109,1.574
	h-6.148c-1.159,0-2.109-0.708-2.109-1.574v-19.819C174.872,186.506,175.819,185.801,176.981,185.801z M328.874,185.801
	L328.874,185.801h6.151c1.159,0,2.109,0.708,2.109,1.571v19.819c0,0.866-0.947,1.574-2.109,1.574h-6.151
	c-1.159,0-2.109-0.708-2.109-1.574v-19.819C326.765,186.506,327.712,185.801,328.874,185.801z M307.176,185.801L307.176,185.801
	h6.151c1.162,0,2.109,0.708,2.109,1.571v19.819c0,0.866-0.947,1.574-2.109,1.574h-6.151c-1.159,0-2.106-0.708-2.106-1.574v-19.819
	C305.07,186.506,306.017,185.801,307.176,185.801z M285.476,185.801L285.476,185.801h6.151c1.162,0,2.109,0.708,2.109,1.571v19.819
	c0,0.866-0.947,1.574-2.109,1.574h-6.151c-1.159,0-2.106-0.708-2.106-1.574v-19.819C283.37,186.506,284.317,185.801,285.476,185.801
	z M263.779,185.801L263.779,185.801h6.148c1.162,0,2.109,0.708,2.109,1.571v19.819c0,0.866-0.947,1.574-2.109,1.574h-6.148
	c-1.159,0-2.109-0.708-2.109-1.574v-19.819C261.67,186.506,262.617,185.801,263.779,185.801z M242.078,185.801L242.078,185.801
	h6.151c1.162,0,2.109,0.708,2.109,1.571v19.819c0,0.866-0.947,1.574-2.109,1.574h-6.151c-1.159,0-2.106-0.708-2.106-1.574v-19.819
	C239.972,186.506,240.919,185.801,242.078,185.801z M220.381,185.801L220.381,185.801h6.148c1.162,0,2.109,0.708,2.109,1.571v19.819
	c0,0.866-0.947,1.574-2.109,1.574h-6.148c-1.162,0-2.109-0.708-2.109-1.574v-19.819
	C218.272,186.506,219.219,185.801,220.381,185.801z M198.681,185.801L198.681,185.801h6.148c1.159,0,2.109,0.708,2.109,1.571v19.819
	c0,0.866-0.947,1.574-2.109,1.574h-6.148c-1.159,0-2.109-0.708-2.109-1.574v-19.819
	C196.572,186.506,197.519,185.801,198.681,185.801z"/>
<g>
	<path style="fill:#15BDB1;" d="M169.028,224.818h13.33V501.23c-4.496-1.348-8.939-2.809-13.33-4.396V224.818z M342.972,496.834
		L342.972,496.834c-4.388,1.587-8.834,3.045-13.33,4.396V224.818h13.33V496.834z M310.851,506.09L310.851,506.09
		c-4.401,0.963-8.847,1.805-13.33,2.539V224.815h13.33v281.273V506.09z M278.727,510.982L278.727,510.982
		c-4.412,0.391-8.858,0.661-13.33,0.826V224.815h13.33V510.982z M246.606,511.809L246.606,511.809
		c-4.475-0.163-8.918-0.435-13.33-0.826V224.815h13.33V511.809z M214.482,508.629L214.482,508.629
		c-4.483-0.732-8.926-1.579-13.327-2.539V224.818h13.327v283.814V508.629z"/>
	<path style="fill:#15BDB1;" d="M150.643,161.842h210.719c-1.348,1.959-2.631,4.076-3.837,6.361H154.486
		c-1.209-2.282-2.492-4.401-3.84-6.361H150.643z"/>
	<path style="fill:#15BDB1;" d="M122.538,115.378h266.93c-1.71,4.079-3.336,8.488-4.863,13.244H127.401
		c-1.529-4.756-3.155-9.165-4.866-13.244H122.538z"/>
</g>
<path style="fill:#20D0C2;" d="M122.538,115.378h266.93c-1.71-2.038-3.336-4.241-4.863-6.618H127.401
	c-1.529,2.376-3.155,4.58-4.866,6.618H122.538z"/>
<g>
</g>
<g>
</g>
<g>
</g>
<g>
</g>
<g>
</g>
<g>
</g>
<g>
</g>
<g>
</g>
<g>
</g>
<g>
</g>
<g>
</g>
<g>
</g>
<g>
</g>
<g>
</g>
<g>
</g>
</svg>
