<?xml version="1.0" encoding="iso-8859-1"?>
<!-- Generator: Adobe Illustrator 19.0.0, SVG Export Plug-In . SVG Version: 6.00 Build 0)  -->
<svg version="1.1" id="Layer_1" xmlns="http://www.w3.org/2000/svg" xmlns:xlink="http://www.w3.org/1999/xlink" x="0px" y="0px"
	 viewBox="0 0 512 512" style="enable-background:new 0 0 512 512;" xml:space="preserve">
<path style="fill:#FF757C;" d="M255.999,0C397.385,0,512,114.615,512,255.999C512,397.387,397.385,512,255.999,512
	S0,397.387,0,255.999C0,114.615,114.615,0,255.999,0z"/>
<path style="fill:#FBB429;" d="M300.824,310.69l91.303,129.251h-17.434L255.999,318.632L300.824,310.69z"/>
<path style="fill:#F5A209;" d="M374.695,439.939L256.001,318.63l13.053-2.313L374.695,439.939z"/>
<path style="fill:#FBB429;" d="M211.179,310.69l-91.303,129.251h17.432l118.694-121.309l-44.82-7.942H211.179z"/>
<g>
	<path style="fill:#F5A209;" d="M137.307,439.939L256.001,318.63l-13.053-2.313L137.307,439.939z"/>
	<path style="fill:#F5A209;" d="M244.534,317.706h22.935l-4.818,169.741h-13.3l-4.815-169.741H244.534z"/>
</g>
<g>
	<path style="fill:#FBB429;" d="M249.27,317.706h13.461l-2.827,169.741h-7.805L249.27,317.706z"/>
	<path style="fill:#FBB429;" d="M70.763,52.502H441.24c7.962,0,14.477,6.513,14.477,14.473v234.235H56.29V66.975
		c0-7.96,6.515-14.473,14.475-14.473H70.763z"/>
</g>
<path style="fill:#FBAB08;" d="M74.425,68.99h363.153v227.834H74.425V68.99z"/>
<path style="fill:#FBB429;" d="M39.233,292.661h433.536c1.385,0,2.514,1.129,2.514,2.514v33.56H36.722v-33.56
	c0-1.385,1.129-2.514,2.514-2.514H39.233z"/>
<path style="fill:#20D0C2;" d="M79.108,73.155h353.784v219.506H79.108V73.155z"/>
<path style="fill:#F5A209;" d="M36.72,322.385H475.28v6.348H36.72V322.385z"/>
<path style="fill:#0E7886;" d="M325.333,281.313h92.58v11.346h-92.58V281.313z"/>
<path style="fill:#FF5B61;" d="M325.333,281.313h92.58v-5.234h-92.58V281.313z"/>
<g>
	<path style="fill:#FFFFFF;" d="M329.694,267.354h83.855c2.397,0,4.361,1.962,4.361,4.363v4.363h-92.58v-4.363
		c0-2.399,1.962-4.363,4.361-4.363H329.694z"/>
	<path style="fill:#FFFFFF;" d="M160.337,170.228c-0.745,0.364-2.163,1.153-4.269,2.375c-4.624,2.635-7.56,4.041-8.808,4.238
		c-0.851,0.135-1.561-0.018-2.097-0.456c-0.536-0.441-0.858-1.016-0.964-1.698c-0.304-1.945,0.329-3.561,1.918-4.829
		c1.59-1.27,5.04-3.034,10.347-5.265c5.307-2.247,8.524-3.451,9.662-3.631c1.718-0.269,2.71,0.373,2.959,1.965
		c0.179,1.138-0.17,2.822-1.038,5.067c-2.084,5.263-4.255,13.754-6.531,25.477c-2.275,11.712-3.358,21.036-3.223,27.988
		c0.022,1.072-0.335,1.958-1.054,2.637c-0.736,0.684-1.647,1.105-2.725,1.274c-2.443,0.384-3.839-0.534-4.189-2.749
		c-0.571-3.636,0.267-11.45,2.496-23.462c2.229-12.008,4.732-21.643,7.516-28.934V170.228z M201.865,189.997L201.865,189.997
		c-0.417,7.719-0.421,12.773-0.04,15.187c0.123,0.781-0.276,1.499-1.177,2.15c-0.917,0.655-1.856,1.063-2.864,1.221
		c-1.111,0.176-2.048,0.031-2.831-0.415c-0.783-0.445-1.232-1.085-1.363-1.909c-0.467-2.968-0.437-7.865,0.119-14.689
		c-3.905,0.701-7.254,1.433-10.063,2.178c-1.636,0.432-2.758,0.697-3.343,0.789c-1.576,0.249-2.575-1.021-3.01-3.792
		c-0.172-1.078,0.459-2.066,1.892-2.946c1.435-0.88,6.544-2.075,15.313-3.601c1.307-9.84,2.238-15.385,2.8-16.625
		c0.578-1.239,1.583-1.967,3.032-2.194c2.273-0.357,3.492,0.004,3.662,1.083c0.093,0.582,0.035,1.493-0.207,2.752
		c-0.223,1.261-0.723,5.761-1.502,13.496c5.214-0.979,9.521-1.746,12.898-2.275c2.174-0.342,3.422,0.567,3.764,2.727
		c0.401,2.558-0.99,4.083-4.183,4.588c-3.607,0.567-7.911,1.334-12.901,2.275L201.865,189.997z M238.629,202.306L238.629,202.306
		c1.7-0.384,3.012-0.648,3.922-0.792c2.328-0.368,6.257-0.739,11.787-1.111c5.53-0.377,9.752-0.542,12.678-0.54
		c2.939,0.004,4.785,0.163,5.536,0.498c0.763,0.318,1.409,0.811,1.951,1.484c0.527,0.659,0.864,1.422,0.994,2.245
		c0.11,0.697-0.302,1.488-1.226,2.392c-0.922,0.9-1.841,1.424-2.765,1.57c-1.08,0.17-2.769,0.159-5.067-0.02
		c-3.892-0.32-8.489-0.309-13.791,0.042c-5.303,0.342-10.208,0.878-14.698,1.585c-2,0.315-4.015,0.937-6.063,1.885
		c-1.129,0.6-2.258,0.997-3.395,1.175c-0.684,0.108-1.325-0.011-1.903-0.342c-0.575-0.333-0.924-0.86-1.034-1.585
		c-0.403-2.558,1.085-5.964,4.458-10.235c3.389-4.273,8.381-8.813,14.971-13.635c8.096-5.9,13.308-10.605,15.659-14.089
		c2.346-3.499,3.294-6.716,2.831-9.659c-0.426-2.697-1.841-4.862-4.238-6.493c-2.412-1.643-5.179-2.211-8.319-1.718
		c-2.882,0.454-5.464,1.354-7.752,2.703c-2.291,1.352-4.383,3.499-6.279,6.445c-0.772,1.199-1.568,1.863-2.379,1.989
		c-0.992,0.157-1.945-0.057-2.862-0.624c-0.922-0.584-1.446-1.332-1.592-2.253c-0.445-2.829,1.374-5.894,5.439-9.181
		c4.081-3.307,9.13-5.424,15.18-6.374c5.184-0.816,9.761,0.066,13.736,2.657c3.986,2.577,6.357,6.365,7.137,11.322
		c0.778,4.943-0.397,9.785-3.537,14.528c-3.126,4.74-9.501,10.4-19.085,17.002C244.814,196.005,241.392,199.048,238.629,202.306z
		 M318.147,155.905L318.147,155.905c2.159-0.342,3.409,0.571,3.748,2.73c0.401,2.555-0.99,4.083-4.169,4.584
		c-4.361,0.686-9.499,1.61-15.425,2.802c-5.924,1.195-10.019,2.086-12.279,2.703c-1.638,0.419-2.763,0.684-3.343,0.774
		c-1.605,0.251-2.633-0.997-3.071-3.784c-0.143-0.908,0.243-1.711,1.138-2.405c0.906-0.71,2.242-1.283,4.03-1.755
		c1.79-0.456,6.26-1.376,13.408-2.765c7.146-1.385,12.468-2.339,15.963-2.888V155.905z M318.147,172.481L318.147,172.481
		c2.145-0.335,3.38,0.575,3.722,2.749c0.399,2.542-0.948,4.064-4.057,4.551c-4.39,0.69-9.554,1.634-15.507,2.833
		c-5.955,1.184-10.076,2.09-12.367,2.701c-1.579,0.421-2.644,0.677-3.199,0.763c-1.647,0.258-2.674-1.005-3.111-3.775
		c-0.146-0.922,0.225-1.722,1.105-2.414c0.895-0.692,2.231-1.266,4.022-1.737c1.79-0.47,6.257-1.391,13.421-2.765
		c7.161-1.389,12.482-2.357,15.974-2.906H318.147z M366.228,160.233L366.228,160.233c2.496,0.598,4.637,1.905,6.434,3.892
		c1.81,1.987,2.882,4.075,3.228,6.277c0.917,5.821-0.6,10.907-4.527,15.264c-3.927,4.357-9.492,7.095-16.68,8.226
		c-5.594,0.88-10.985,0.3-16.153-1.755c-5.17-2.068-8.006-4.635-8.491-7.717c-0.17-1.078,0.064-2.106,0.679-3.089
		c0.604-0.968,1.418-1.546,2.41-1.704c1.861-0.293,3.175,0.097,3.936,1.142c4.013,5.073,9.624,7.058,16.838,5.922
		c5.042-0.792,8.771-2.542,11.17-5.234c2.414-2.694,3.345-5.766,2.802-9.203c-0.28-1.775-1.074-3.223-2.37-4.328
		c-1.29-1.091-2.736-1.766-4.344-1.995c-1.594-0.227-4.432-0.029-8.506,0.611c-1.094,0.172-2.017-0.062-2.787-0.697
		c-0.767-0.622-1.215-1.424-1.369-2.403c-0.139-0.882,0.132-1.755,0.842-2.608c0.712-0.84,1.777-1.385,3.226-1.612
		c1.107-0.176,2.161-0.313,3.164-0.412l2.994-0.209c0.456-0.071,1.823-0.811,4.121-2.207c2.282-1.407,4.006-3.032,5.124-4.908
		c1.131-1.868,1.528-3.881,1.188-6.037c-0.392-2.5-1.801-4.419-4.211-5.759c-2.425-1.349-5.395-1.74-8.947-1.184
		c-6.107,0.961-10.416,3.821-12.945,8.57c-0.666,1.33-1.678,2.099-3.04,2.313c-1.052,0.165-1.984-0.024-2.78-0.553
		s-1.268-1.314-1.438-2.379c-0.386-2.456,1.438-5.391,5.486-8.808c4.033-3.4,8.89-5.561,14.543-6.449
		c5.384-0.847,10.116-0.093,14.195,2.251c4.079,2.342,6.454,5.68,7.135,10.01c0.518,3.296-0.168,6.432-2.062,9.379
		c-1.894,2.959-4.855,5.42-8.866,7.388V160.233z"/>
	<path style="fill:#FFFFFF;" d="M246.178,282.329h64.717v10.33h-64.717V282.329z"/>
</g>
<path style="fill:#ECF0F1;" d="M246.178,290.368h64.717v2.293h-64.717V290.368z"/>
<g>
</g>
<g>
</g>
<g>
</g>
<g>
</g>
<g>
</g>
<g>
</g>
<g>
</g>
<g>
</g>
<g>
</g>
<g>
</g>
<g>
</g>
<g>
</g>
<g>
</g>
<g>
</g>
<g>
</g>
</svg>
